<svg width="36" height="36" viewBox="0 0 36 36" fill="none" xmlns="http://www.w3.org/2000/svg">
<rect width="36" height="36" rx="18" fill="#38BDF8"/>
<path opacity="0.992" fill-rule="evenodd" clip-rule="evenodd" d="M16.4531 0C17.4844 0 18.5156 0 19.5469 0C25.9398 0.758665 30.7327 3.92273 33.9258 9.49219C35.0536 11.6913 35.745 14.0116 36 16.4531C36 17.4844 36 18.5156 36 19.5469C35.1222 26.5997 31.466 31.6271 25.0312 34.6289C23.2605 35.3528 21.4324 35.8099 19.5469 36C18.5156 36 17.4844 36 16.4531 36C9.40029 35.1222 4.37295 31.466 1.37109 25.0312C0.647151 23.2605 0.19012 21.4324 0 19.5469C0 18.5156 0 17.4844 0 16.4531C0.877795 9.40029 4.53405 4.37295 10.9688 1.37109C12.7395 0.647151 14.5676 0.19012 16.4531 0ZM11.3203 8.64844C11.5417 8.62812 11.7527 8.66327 11.9531 8.75391C13.1367 9.93748 14.3203 11.1211 15.5039 12.3047C15.5694 12.4424 15.6279 12.5831 15.6797 12.7266C15.6279 12.8701 15.5694 13.0107 15.5039 13.1484C14.8008 13.8516 14.0977 14.5547 13.3945 15.2578C12.9961 15.8158 12.9023 16.4252 13.1133 17.0859C14.6953 19.3242 16.6055 21.2344 18.8438 22.8164C19.4896 23.162 20.1225 23.1386 20.7422 22.7461C21.4687 22.0196 22.1953 21.2929 22.9219 20.5664C23.2031 20.4258 23.4844 20.4258 23.7656 20.5664C24.9981 21.7754 26.2052 23.0059 27.3867 24.2578C27.4336 24.4453 27.4336 24.6328 27.3867 24.8203C26.6991 25.7428 25.8436 26.4576 24.8203 26.9648C24.0109 27.3196 23.1671 27.4369 22.2891 27.3164C20.109 26.8004 18.1168 25.8863 16.3125 24.5742C13.5005 22.5455 11.2856 20.0025 9.66797 16.9453C9.2172 16.0204 8.86563 15.0595 8.61328 14.0625C8.41437 12.7145 8.7191 11.4958 9.52734 10.4062C10.071 9.75705 10.6687 9.17114 11.3203 8.64844Z" fill="white"/>
</svg>
