<svg width="36" height="37" viewBox="0 0 36 37" fill="none" xmlns="http://www.w3.org/2000/svg">
<g clip-path="url(#clip0_544_4447)">
<path d="M11.785 18.5407L21.6689 11.3889C21.717 11.354 21.7737 11.3331 21.8329 11.3285C21.8921 11.3239 21.9514 11.3358 22.0042 11.3629C22.0571 11.3899 22.1014 11.4311 22.1323 11.4818C22.1631 11.5324 22.1794 11.5907 22.1792 11.6501V13.5344C22.1792 13.9443 21.9823 14.334 21.6488 14.5751L15.8069 18.8018L21.6488 23.0286C21.9823 23.2697 22.1792 23.6554 22.1792 24.0693V25.9536C22.1792 26.2148 21.8819 26.3675 21.6689 26.2148L11.785 19.063C11.6082 18.9344 11.6082 18.6693 11.785 18.5407Z" fill="#545454"/>
<path d="M18 0.802673C27.9402 0.802673 36 8.86249 36 18.8027C36 28.7429 27.9402 36.8027 18 36.8027C8.05982 36.8027 0 28.7429 0 18.8027C0 8.86249 8.05982 0.802673 18 0.802673ZM18 33.7491C26.2527 33.7491 32.9464 27.0554 32.9464 18.8027C32.9464 10.55 26.2527 3.85624 18 3.85624C9.74732 3.85624 3.05357 10.55 3.05357 18.8027C3.05357 27.0554 9.74732 33.7491 18 33.7491Z" fill="#545454"/>
</g>
<defs>
<clipPath id="clip0_544_4447">
<rect width="36" height="36" fill="white" transform="matrix(-1 0 0 1 36 0.802673)"/>
</clipPath>
</defs>
</svg>
