<svg width="36" height="37" viewBox="0 0 36 37" fill="none" xmlns="http://www.w3.org/2000/svg">
<g clip-path="url(#clip0_544_4448)">
<path d="M24.215 18.5407L14.3311 11.3889C14.283 11.354 14.2263 11.3331 14.1671 11.3285C14.1079 11.3239 14.0486 11.3358 13.9958 11.3629C13.9429 11.3899 13.8986 11.4311 13.8677 11.4818C13.8369 11.5324 13.8206 11.5907 13.8208 11.6501V13.5344C13.8208 13.9443 14.0177 14.334 14.3512 14.5751L20.1931 18.8018L14.3512 23.0286C14.0177 23.2697 13.8208 23.6554 13.8208 24.0693V25.9536C13.8208 26.2148 14.1181 26.3675 14.3311 26.2148L24.215 19.063C24.3918 18.9344 24.3918 18.6693 24.215 18.5407Z" fill="#545454"/>
<path d="M18 0.802673C8.05982 0.802673 0 8.86249 0 18.8027C0 28.7429 8.05982 36.8027 18 36.8027C27.9402 36.8027 36 28.7429 36 18.8027C36 8.86249 27.9402 0.802673 18 0.802673ZM18 33.7491C9.74732 33.7491 3.05357 27.0554 3.05357 18.8027C3.05357 10.55 9.74732 3.85624 18 3.85624C26.2527 3.85624 32.9464 10.55 32.9464 18.8027C32.9464 27.0554 26.2527 33.7491 18 33.7491Z" fill="#545454"/>
</g>
<defs>
<clipPath id="clip0_544_4448">
<rect width="36" height="36" fill="white" transform="translate(0 0.802673)"/>
</clipPath>
</defs>
</svg>
