<svg width="36" height="36" viewBox="0 0 36 36" fill="none" xmlns="http://www.w3.org/2000/svg">
<g clip-path="url(#clip0_202_180)">
<path opacity="0.996" fill-rule="evenodd" clip-rule="evenodd" d="M16.3477 -0.0351562C17.4258 -0.0351562 18.5039 -0.0351562 19.582 -0.0351562C25.8851 0.730399 30.6312 3.84759 33.8203 9.31641C34.9942 11.5292 35.709 13.8729 35.9648 16.3477C35.9648 17.4258 35.9648 18.5039 35.9648 19.582C35.1993 25.8851 32.0821 30.6312 26.6133 33.8203C24.4005 34.9942 22.0567 35.709 19.582 35.9648C18.5039 35.9648 17.4258 35.9648 16.3477 35.9648C10.0446 35.1993 5.29848 32.0821 2.10938 26.6133C0.935529 24.4005 0.220683 22.0567 -0.0351562 19.582C-0.0351562 18.5039 -0.0351562 17.4258 -0.0351562 16.3477C0.730371 10.0446 3.84756 5.29856 9.31641 2.10938C11.5292 0.935529 13.8729 0.220683 16.3477 -0.0351562Z" fill="white"/>
<path fill-rule="evenodd" clip-rule="evenodd" d="M16.7176 8.0144C20.5819 7.82599 23.2949 9.48661 24.8567 12.9963C25.6471 15.5565 25.3575 17.9895 23.9877 20.2954C23.4728 21.1193 22.9128 21.9109 22.3078 22.6705C21.1705 23.943 20.0119 25.1982 18.832 26.4359C18.4035 26.9263 18.0172 27.4476 17.6734 28C17.2709 27.4235 16.846 26.8636 16.399 26.3201C15.337 25.1808 14.2749 24.0415 13.2129 22.9022C12.091 21.6251 11.2027 20.1962 10.5481 18.6155C9.38613 15.2627 10.0717 12.3566 12.6046 9.8971C13.8054 8.8911 15.1765 8.26351 16.7176 8.0144Z" fill="#38BDF8"/>
<path fill-rule="evenodd" clip-rule="evenodd" d="M16.9661 12.0078C18.7454 11.9138 20.0156 12.6665 20.7767 14.266C21.2981 16.1083 20.7618 17.5479 19.1678 18.5846C17.2271 19.4286 15.6558 18.9864 14.4539 17.258C13.5615 15.3039 13.9849 13.7137 15.7241 12.4877C16.1259 12.2757 16.5399 12.1158 16.9661 12.0078Z" fill="white"/>
</g>
<defs>
<clipPath id="clip0_202_180">
<rect width="36" height="36" fill="white"/>
</clipPath>
</defs>
</svg>
