<svg width="36" height="36" viewBox="0 0 36 36" fill="none" xmlns="http://www.w3.org/2000/svg">
<rect width="36" height="36" rx="18" fill="#38BDF8"/>
<g clip-path="url(#clip0_202_194)">
<path opacity="0.988" fill-rule="evenodd" clip-rule="evenodd" d="M16.3477 -0.0351562C17.4258 -0.0351562 18.5039 -0.0351562 19.582 -0.0351562C25.8851 0.730399 30.6312 3.84759 33.8203 9.31641C34.9942 11.5292 35.709 13.8729 35.9648 16.3477C35.9648 17.4258 35.9648 18.5039 35.9648 19.582C35.1993 25.8851 32.0821 30.6312 26.6133 33.8203C24.4005 34.9942 22.0567 35.709 19.582 35.9648C18.5039 35.9648 17.4258 35.9648 16.3477 35.9648C10.0446 35.1993 5.29848 32.0821 2.10938 26.6133C0.935529 24.4005 0.220683 22.0567 -0.0351562 19.582C-0.0351562 18.5039 -0.0351562 17.4258 -0.0351562 16.3477C0.730371 10.0446 3.84756 5.29856 9.31641 2.10938C11.5292 0.935529 13.8729 0.220683 16.3477 -0.0351562ZM17.8945 6.36328C21.4356 8.48566 24.9512 10.6536 28.4414 12.8672C21.4571 12.9141 14.4726 12.9141 7.48828 12.8672C10.9734 10.7151 14.4421 8.54712 17.8945 6.36328ZM7.20703 13.1133C10.5899 15.1918 13.9649 17.2894 17.332 19.4062C17.7539 19.6406 18.1758 19.6406 18.5977 19.4062C21.9492 17.3086 25.3008 15.2109 28.6523 13.1133C28.7344 16.6755 28.7461 20.238 28.6875 23.8008C28.4954 24.6257 27.9915 25.153 27.1758 25.3828C21.0117 25.4297 14.8477 25.4297 8.68359 25.3828C7.90734 25.1223 7.4269 24.595 7.24219 23.8008C7.20703 20.2383 7.19529 16.6759 7.20703 13.1133Z" fill="white"/>
</g>
<defs>
<clipPath id="clip0_202_194">
<rect width="36" height="36" fill="white"/>
</clipPath>
</defs>
</svg>
