<svg width="108" height="108" viewBox="0 0 108 108" fill="none" xmlns="http://www.w3.org/2000/svg">
<rect x="1" y="1" width="106" height="106" rx="48" stroke="#38BDF8" stroke-width="2" stroke-dasharray="2 4 6 8"/>
<g clip-path="url(#clip0_557_461)">
<path opacity="0.961" fill-rule="evenodd" clip-rule="evenodd" d="M37.1328 28.3154C42.0756 28.3154 47.0182 28.3154 51.9609 28.3154C52.5709 28.7154 52.7233 29.2571 52.418 29.9404C52.2947 30.0977 52.1423 30.2162 51.9609 30.2959C51.5561 30.3466 51.1499 30.3635 50.7422 30.3467C50.7422 32.3779 50.7422 34.4092 50.7422 36.4404C52.9091 36.4235 55.0758 36.4404 57.2422 36.4912C59.0195 36.9144 60.1198 38.0146 60.543 39.792C60.5938 40.6715 60.6106 41.5518 60.5938 42.4326C63.2341 42.6865 65.8747 42.9066 68.5156 43.0928C69.8837 41.5885 71.3733 40.2344 72.9844 39.0303C75.2254 37.7093 77.5952 37.3708 80.0938 38.0146C80.3095 38.275 80.445 38.5628 80.5 38.8779C80.5 39.792 80.5 40.7061 80.5 41.6201C80.1552 43.6302 79.2919 45.3906 77.9102 46.9014C76.9269 47.8676 75.9621 48.8494 75.0156 49.8467C75.5754 55.3268 76.1171 60.8112 76.6406 66.2998C76.6311 66.5459 76.5803 66.7828 76.4883 67.0107C75.3881 68.111 74.2877 69.2113 73.1875 70.3115C72.6554 70.547 72.1814 70.4623 71.7656 70.0576C71.2488 69.1257 70.7579 68.1777 70.293 67.2139C70.0353 67.5056 69.7476 67.7595 69.4297 67.9756C68.3684 68.2002 67.8774 67.777 67.957 66.7061C68.3229 66.1538 68.746 65.6459 69.2266 65.1826C68.8373 64.4717 68.4479 63.7607 68.0586 63.0498C67.75 63.5126 67.3268 63.7835 66.7891 63.8623C66.0037 63.7032 65.682 63.2293 65.8242 62.4404C66.1763 61.9192 66.5656 61.4283 66.9922 60.9678C66.6384 60.2748 66.283 59.5807 65.9258 58.8857C64.5025 60.2921 63.0976 61.714 61.7109 63.1514C62.0394 64.4145 62.3441 65.684 62.625 66.96C62.5603 67.188 62.4757 67.4081 62.3711 67.6201C61.7955 68.1957 61.2201 68.7711 60.6445 69.3467C60.6107 70.5316 60.5768 71.7164 60.543 72.9014C60.182 74.5149 59.2172 75.5813 57.6484 76.1006C56.4699 76.244 55.285 76.2948 54.0938 76.2529C54.399 78.2171 53.6543 79.5714 51.8594 80.3154C51.3177 80.3154 50.776 80.3154 50.2344 80.3154C48.4395 79.5714 47.6947 78.2171 48 76.2529C45.6979 76.2529 43.3959 76.2529 41.0938 76.2529C41.399 78.2171 40.6543 79.5714 38.8594 80.3154C38.3177 80.3154 37.776 80.3154 37.2344 80.3154C35.4395 79.5714 34.6947 78.2171 35 76.2529C33.95 76.2698 32.9005 76.2529 31.8516 76.2021C30.0728 75.7606 28.9556 74.6602 28.5 72.9014C28.5 66.5368 28.5 60.1722 28.5 53.8076C29.1603 53.1348 29.8205 53.1348 30.4805 53.8076C30.5143 59.8675 30.5482 65.9274 30.582 71.9873C30.7005 73.3246 31.4284 74.0524 32.7656 74.1709C40.6198 74.2386 48.474 74.2386 56.3281 74.1709C57.3718 74.0987 58.0658 73.5739 58.4102 72.5967C58.5111 72.1277 58.5619 71.6537 58.5625 71.1748C58.1546 71.2357 57.7992 71.1342 57.4961 70.8701C56.8206 69.5191 56.1435 68.1649 55.4648 66.8076C55.1513 68.746 54.051 69.9818 52.1641 70.5146C46.9459 70.6144 41.7324 70.5806 36.5234 70.4131C35.0573 69.8611 34.1263 68.8286 33.7305 67.3154C33.6628 64.6071 33.6628 61.8988 33.7305 59.1904C33.8828 59.0381 34.0352 58.8857 34.1875 58.7334C38.724 58.6996 43.2604 58.6657 47.7969 58.6318C48.7816 57.6132 49.7973 56.6314 50.8438 55.6865C51.1146 55.6188 51.3854 55.6188 51.6562 55.6865C52.8374 55.9769 54.0222 56.2139 55.2109 56.3975C56.5835 55.0419 57.9376 53.6708 59.2734 52.2842C58.5875 51.8989 57.8935 51.5264 57.1914 51.167C56.8359 51.5225 56.4805 51.8779 56.125 52.2334C55.1967 52.6719 54.6212 52.4011 54.3984 51.4209C54.3978 51.1873 54.4486 50.9673 54.5508 50.7607C54.7557 50.5729 54.9419 50.3697 55.1094 50.1514C54.4542 49.7136 53.7601 49.3412 53.0273 49.0342C52.5714 49.4221 52.1144 49.8114 51.6562 50.2021C50.5411 50.4072 50.0502 49.9502 50.1836 48.8311C50.3997 48.5132 50.6536 48.2254 50.9453 47.9678C50.0975 47.4422 49.2172 46.9682 48.3047 46.5459C47.8255 46.2064 47.6732 45.7493 47.8477 45.1748C48.9479 43.9391 50.1159 42.7711 51.3516 41.6709C53.7621 41.75 56.1658 41.9362 58.5625 42.2295C58.6296 41.3207 58.5112 40.4406 58.207 39.5889C57.7738 38.9064 57.1474 38.5509 56.3281 38.5225C48.474 38.4547 40.6198 38.4547 32.7656 38.5225C31.722 38.5947 31.028 39.1194 30.6836 40.0967C30.5551 42.2935 30.4874 44.494 30.4805 46.6982C29.8226 47.4956 29.1624 47.4956 28.5 46.6982C28.5 44.3961 28.5 42.0941 28.5 39.792C28.9556 38.0331 30.0728 36.9328 31.8516 36.4912C34.018 36.4404 36.1846 36.4235 38.3516 36.4404C38.3516 34.4092 38.3516 32.3779 38.3516 30.3467C37.9439 30.3635 37.5377 30.3466 37.1328 30.2959C36.5717 29.9995 36.3855 29.5424 36.5742 28.9248C36.7123 28.6686 36.8985 28.4655 37.1328 28.3154ZM40.3828 30.3467C43.1588 30.3467 45.9349 30.3467 48.7109 30.3467C48.7109 32.3779 48.7109 34.4092 48.7109 36.4404C45.9349 36.4404 43.1588 36.4404 40.3828 36.4404C40.3828 34.4092 40.3828 32.3779 40.3828 30.3467ZM77.1484 39.792C77.5547 39.792 77.9609 39.792 78.3672 39.792C78.4855 41.6881 77.9608 43.3807 76.793 44.8701C71.1393 50.5238 65.4857 56.1774 59.832 61.8311C59.6154 62.0782 59.4969 62.366 59.4766 62.6943C59.7343 63.9494 60.0052 65.2021 60.2891 66.4521C59.8109 67.1343 59.2523 67.7607 58.6133 68.3311C57.693 66.3889 56.745 64.4592 55.7695 62.542C53.8181 61.5578 51.8716 60.5591 49.9297 59.5459C50.4926 58.9488 51.0852 58.3902 51.707 57.8701C53.1185 58.3123 54.5574 58.5662 56.0234 58.6318C61.8436 52.9133 67.6326 47.1581 73.3906 41.3662C74.5305 40.5524 75.783 40.0276 77.1484 39.792ZM52.1641 43.7529C56.9371 44.2068 61.7105 44.6638 66.4844 45.124C64.6379 46.9874 62.7759 48.8325 60.8984 50.6592C57.4791 48.8818 54.0599 47.1045 50.6406 45.3271C51.1691 44.8158 51.6769 44.291 52.1641 43.7529ZM72.9844 51.7764C73.5332 56.3392 74.0072 60.9264 74.4062 65.5381C74.3893 65.7243 74.3724 65.9105 74.3555 66.0967C73.8815 66.5707 73.4076 67.0446 72.9336 67.5186C71.0836 64.1404 69.2724 60.738 67.5 57.3115C69.3486 55.4798 71.1768 53.6349 72.9844 51.7764ZM35.7109 60.8154C39.672 60.7985 43.6329 60.8154 47.5938 60.8662C49.494 61.7875 51.3899 62.7184 53.2812 63.6592C53.4185 64.7792 53.4015 65.8964 53.2305 67.0107C52.9766 67.6709 52.5195 68.1279 51.8594 68.3818C47.1908 68.548 42.5189 68.5818 37.8438 68.4834C36.8657 68.4193 36.2055 67.9285 35.8633 67.0107C35.7384 66.3054 35.6876 65.5945 35.7109 64.8779C38.1825 64.8949 40.6539 64.8779 43.125 64.8271C43.9669 64.6246 44.2546 64.0999 43.9883 63.2529C43.8359 63.1006 43.6836 62.9482 43.5312 62.7959C40.9246 62.7451 38.3179 62.7282 35.7109 62.7451C35.7109 62.1019 35.7109 61.4586 35.7109 60.8154ZM37.0312 76.2529C37.7083 76.2529 38.3854 76.2529 39.0625 76.2529C39.0854 76.7351 39.0346 77.2091 38.9102 77.6748C38.4396 78.2668 37.8979 78.3346 37.2852 77.8779C37.0739 77.3581 36.9893 76.8165 37.0312 76.2529ZM50.0312 76.2529C50.7084 76.2529 51.3854 76.2529 52.0625 76.2529C52.0854 76.7351 52.0346 77.2091 51.9102 77.6748C51.4396 78.2668 50.8979 78.3346 50.2852 77.8779C50.0739 77.3581 49.9893 76.8165 50.0312 76.2529Z" fill="#38BDF8"/>
<path opacity="0.943" fill-rule="evenodd" clip-rule="evenodd" d="M36.9793 46.1393C39.2531 45.8297 41.0305 46.6084 42.3114 48.4752C43.1959 50.9337 42.468 52.7449 40.1278 53.9088C37.7447 54.7814 35.6965 54.2905 33.9833 52.4362C32.8598 50.4253 33.1476 48.648 34.8465 47.1041C35.5164 46.6672 36.2273 46.3456 36.9793 46.1393ZM37.284 48.2721C38.4748 48.074 39.4735 48.4125 40.2801 49.2877C40.8046 50.7265 40.3137 51.6575 38.8075 52.0807C37.5847 52.3728 36.5522 52.0511 35.7098 51.1158C35.2377 50.1677 35.4239 49.372 36.2684 48.7291C36.6051 48.5433 36.9437 48.3909 37.284 48.2721Z" fill="#38BDF8"/>
<path opacity="0.907" fill-rule="evenodd" clip-rule="evenodd" d="M28.4492 50.7097C28.4492 50.3712 28.4492 50.0326 28.4492 49.6941C29.1095 49.0212 29.7697 49.0212 30.4297 49.6941C30.6194 51.0794 30.0609 51.5364 28.7539 51.0652C28.6865 50.911 28.585 50.7925 28.4492 50.7097Z" fill="#38BDF8"/>
<path opacity="0.907" fill-rule="evenodd" clip-rule="evenodd" d="M46.2227 62.6946C47.3894 62.5579 47.8804 63.0657 47.6953 64.218C47.0521 65.0305 46.4088 65.0305 45.7657 64.218C45.6979 63.8795 45.6979 63.5409 45.7657 63.2024C45.939 63.0463 46.0914 62.877 46.2227 62.6946Z" fill="#38BDF8"/>
</g>
<defs>
<clipPath id="clip0_557_461">
<rect width="52" height="52" fill="white" transform="translate(28.5 28.3154)"/>
</clipPath>
</defs>
</svg>
