<svg width="108" height="108" viewBox="0 0 108 108" fill="none" xmlns="http://www.w3.org/2000/svg">
<rect x="1" y="1" width="106" height="106" rx="48" stroke="#38BDF8" stroke-width="2" stroke-dasharray="2 4 6 8"/>
<g clip-path="url(#clip0_557_283)">
<path opacity="0.957" fill-rule="evenodd" clip-rule="evenodd" d="M80.4492 48.457C80.4492 51.6732 80.4492 54.8893 80.4492 58.1055C80.3379 58.2683 80.2024 58.4206 80.043 58.5625C76.9114 59.4603 75.7772 61.4747 76.6406 64.6055C77.3791 65.9659 78.5131 66.7954 80.043 67.0937C80.2024 67.2356 80.3379 67.388 80.4492 67.5508C80.4492 70.8346 80.4492 74.1185 80.4492 77.4023C80.0889 78.2524 79.4457 78.7434 78.5195 78.875C62.4727 78.9427 46.4258 78.9427 30.3789 78.875C29.4732 78.6625 28.83 78.1378 28.4492 77.3008C28.4492 74.0508 28.4492 70.8008 28.4492 67.5508C28.5369 67.4301 28.6385 67.3116 28.7539 67.1953C29.9794 66.9298 31.012 66.3374 31.8516 65.418C33.0025 63.6927 33.0025 61.9662 31.8516 60.2383C31.0276 59.3774 30.0289 58.8188 28.8555 58.5625C28.696 58.4206 28.5606 58.2683 28.4492 58.1055C28.4492 54.8555 28.4492 51.6055 28.4492 48.3555C28.7015 47.6124 29.2093 47.1216 29.9727 46.8828C31.2591 46.849 32.5456 46.8151 33.832 46.7812C33.3935 46.4446 33.0719 46.0215 32.8672 45.5117C32.7974 45.0102 32.9498 44.587 33.3242 44.2422C34.0013 43.7682 34.6784 43.2943 35.3555 42.8203C35.7279 42.6172 36.1003 42.6172 36.4727 42.8203C38.0638 43.6159 39.6549 44.4115 41.2461 45.207C42.5138 44.1257 43.7664 43.0254 45.0039 41.9062C42.7526 39.3841 40.5013 36.862 38.25 34.3398C37.8823 33.7154 37.9669 33.1568 38.5039 32.6641C39.7227 31.8177 40.9414 30.9714 42.1602 30.125C42.3486 30.0821 42.5348 30.0313 42.7188 29.9727C46.2866 31.6296 49.8244 33.3561 53.332 35.1523C55.0195 33.8684 56.8815 32.9035 58.918 32.2578C61.6729 31.5955 63.5857 32.5603 64.6562 35.1523C64.927 36.305 64.8255 37.4222 64.3516 38.5039C63.0554 40.5448 61.3628 42.1698 59.2734 43.3789C59.3044 44.5239 59.4229 45.658 59.6289 46.7812C66.0273 46.8151 72.4258 46.849 78.8242 46.8828C79.6916 47.0902 80.2332 47.615 80.4492 48.457ZM42.7695 32.5117C45.598 33.9429 48.4418 35.3479 51.3008 36.7266C49.8259 37.9476 48.3363 39.1494 46.832 40.332C44.9373 38.2847 43.0584 36.2196 41.1953 34.1367C41.0956 34.0089 41.0618 33.8734 41.0938 33.7305C41.6993 33.3774 42.2579 32.9711 42.7695 32.5117ZM59.9336 34.3398C61.6933 34.3558 62.5227 35.236 62.4219 36.9805C62.0232 38.0636 61.3631 38.9607 60.4414 39.6719C58.9053 40.8011 57.3142 41.8506 55.668 42.8203C51.6133 45.1779 47.5338 47.4969 43.4297 49.7773C43.2256 50.0789 43.141 50.4174 43.1758 50.793C43.3413 52.5409 43.5445 54.2844 43.7852 56.0234C43.7817 56.3449 43.6463 56.4295 43.3789 56.2773C42.6985 54.8991 41.9537 53.5619 41.1445 52.2656C40.9008 52.0929 40.6299 52.0083 40.332 52.0117C39.3492 52.1644 38.3674 52.2828 37.3867 52.3672C37.8904 51.5462 38.3813 50.7167 38.8594 49.8789C38.9271 49.5742 38.9271 49.2695 38.8594 48.9648C37.8865 47.7491 36.854 46.5812 35.7617 45.4609C35.8464 45.3763 35.931 45.2916 36.0156 45.207C37.8061 46.17 39.6342 47.0502 41.5 47.8477C41.6839 47.789 41.8702 47.7382 42.0586 47.6953C46.468 43.8948 50.9368 40.1709 55.4648 36.5234C56.8146 35.493 58.3041 34.7652 59.9336 34.3398ZM56.7852 44.9023C56.9121 44.9102 56.9967 44.9779 57.0391 45.1055C57.3798 48.1044 57.7353 51.1005 58.1055 54.0937C57.5238 54.5726 56.9144 55.0296 56.2773 55.4648C54.8184 52.937 53.3965 50.381 52.0117 47.7969C53.6431 46.8805 55.2343 45.9156 56.7852 44.9023ZM49.7773 48.9648C49.8967 48.9426 49.9982 48.9764 50.082 49.0664C51.6764 52.137 53.3353 55.167 55.0586 58.1562C55.5632 58.4845 56.071 58.4845 56.582 58.1562C57.6814 57.3526 58.7986 56.5739 59.9336 55.8203C60.1243 55.6636 60.2767 55.4774 60.3906 55.2617C60.3275 53.1868 60.1413 51.1217 59.832 49.0664C61.1862 49.0664 62.5404 49.0664 63.8945 49.0664C63.8777 50.0487 63.8945 51.0305 63.9453 52.0117C64.2615 52.8741 64.854 53.128 65.7227 52.7734C65.9134 52.6167 66.0657 52.4306 66.1797 52.2148C66.2305 51.1659 66.2473 50.1165 66.2305 49.0664C70.2252 49.0664 74.2201 49.0664 78.2148 49.0664C78.2487 51.6402 78.2148 54.2131 78.1133 56.7852C74.8559 58.2889 73.5186 60.828 74.1016 64.4023C74.7026 66.5946 76.0567 68.118 78.1641 68.9727C78.2148 71.5115 78.2318 74.0506 78.2148 76.5898C74.2201 76.5898 70.2252 76.5898 66.2305 76.5898C66.2473 75.5398 66.2305 74.4903 66.1797 73.4414C65.7456 72.5872 65.1194 72.4179 64.3008 72.9336C64.1183 73.0992 63.9997 73.3024 63.9453 73.543C63.8945 74.558 63.8777 75.5736 63.8945 76.5898C52.8242 76.5898 41.7539 76.5898 30.6836 76.5898C30.6498 74.0499 30.6836 71.5108 30.7852 68.9727C34.11 67.455 35.4811 64.8821 34.8984 61.2539C34.2884 59.0189 32.9003 57.4955 30.7344 56.6836C30.6836 54.1447 30.6667 51.6057 30.6836 49.0664C32.4105 49.0494 34.1371 49.0664 35.8633 49.1172C36.0387 49.2583 36.1741 49.4276 36.2695 49.625C35.5295 50.8507 34.8017 52.0864 34.0859 53.332C33.7246 54.4101 34.1139 54.9857 35.2539 55.0586C36.7432 54.8289 38.2328 54.6426 39.7227 54.5C40.565 55.9984 41.3944 57.5048 42.2109 59.0195C42.757 59.4029 43.3156 59.4199 43.8867 59.0703C44.6095 58.5845 45.3035 58.0599 45.9688 57.4961C46.0563 57.3349 46.124 57.1656 46.1719 56.9883C46.0186 55.1015 45.7986 53.2225 45.5117 51.3516C46.9563 50.5789 48.3782 49.7833 49.7773 48.9648Z" fill="#38BDF8"/>
<path opacity="0.934" fill-rule="evenodd" clip-rule="evenodd" d="M64.6055 54.9575C65.318 54.7976 65.8426 55.0347 66.1797 55.6684C66.2475 57.395 66.2475 59.1215 66.1797 60.8481C65.7048 61.5887 65.0786 61.741 64.3008 61.3051C64.1163 61.1223 63.9977 60.9023 63.9453 60.645C63.8776 59.0538 63.8776 57.4627 63.9453 55.8715C64.034 55.4627 64.254 55.1581 64.6055 54.9575Z" fill="#38BDF8"/>
<path opacity="0.946" fill-rule="evenodd" clip-rule="evenodd" d="M39.2146 60.5425C44.4282 60.5255 49.6418 60.5425 54.8552 60.5933C55.6108 61.0628 55.7632 61.689 55.3122 62.4722C55.0742 62.7031 54.7864 62.8217 54.449 62.8277C49.5062 62.8954 44.5636 62.8954 39.6208 62.8277C38.727 62.6845 38.3715 62.1598 38.5544 61.2534C38.7265 60.9632 38.9466 60.7262 39.2146 60.5425Z" fill="#38BDF8"/>
<path opacity="0.934" fill-rule="evenodd" clip-rule="evenodd" d="M64.6055 64.0981C65.318 63.9382 65.8426 64.1753 66.1797 64.809C66.2475 66.434 66.2475 68.059 66.1797 69.684C65.7006 70.425 65.0743 70.5774 64.3008 70.1411C64.1381 69.9445 64.0196 69.7246 63.9453 69.4809C63.8776 67.9913 63.8776 66.5018 63.9453 65.0122C64.034 64.6034 64.254 64.2987 64.6055 64.0981Z" fill="#38BDF8"/>
<path opacity="0.986" fill-rule="evenodd" clip-rule="evenodd" d="M39.1131 66.9409C45.8164 66.924 52.5195 66.9409 59.2225 66.9917C59.829 67.4224 59.9814 67.981 59.6795 68.6675C59.5228 68.8582 59.3367 69.0106 59.1209 69.1245C52.4856 69.1923 45.8501 69.1923 39.2147 69.1245C38.4591 68.655 38.3068 68.0288 38.7577 67.2456C38.9118 67.1783 39.0304 67.0767 39.1131 66.9409Z" fill="#38BDF8"/>
</g>
<defs>
<clipPath id="clip0_557_283">
<rect width="52" height="52" fill="white" transform="translate(28.5 28.5)"/>
</clipPath>
</defs>
</svg>
