<svg width="108" height="108" viewBox="0 0 108 108" fill="none" xmlns="http://www.w3.org/2000/svg">
<rect x="1" y="1" width="106" height="106" rx="48" stroke="#38BDF8" stroke-width="2" stroke-dasharray="2 4 6 8"/>
<g clip-path="url(#clip0_557_213)">
<path opacity="0.955" fill-rule="evenodd" clip-rule="evenodd" d="M34.3398 27.3154C36.2695 27.3154 38.1992 27.3154 40.1289 27.3154C40.5555 27.6727 40.6401 28.1128 40.3828 28.6357C40.3066 28.6993 40.2219 28.7501 40.1289 28.7881C38.4362 28.8219 36.7435 28.8558 35.0508 28.8896C34.3504 29.0145 33.8595 29.4038 33.5781 30.0576C33.5104 37.3701 33.5104 44.6826 33.5781 51.9951C33.7348 52.1859 33.921 52.3382 34.1367 52.4521C47.6784 52.5199 61.2201 52.5199 74.7617 52.4521C74.9774 52.3382 75.1636 52.1859 75.3203 51.9951C75.3881 44.6826 75.3881 37.3701 75.3203 30.0576C75.0261 29.3571 74.5013 28.9678 73.7461 28.8896C63.4545 28.8558 53.1627 28.8219 42.8711 28.7881C42.3434 28.2936 42.3434 27.8027 42.8711 27.3154C53.4336 27.3154 63.9961 27.3154 74.5586 27.3154C75.4426 27.6062 76.1366 28.1479 76.6406 28.9404C76.7622 29.2034 76.8638 29.4742 76.9453 29.7529C77.0131 37.2686 77.0131 44.7842 76.9453 52.2998C76.8379 52.684 76.6517 53.0226 76.3867 53.3154C76.6517 53.6082 76.8379 53.9468 76.9453 54.3311C77.0131 58.6644 77.0131 62.9977 76.9453 67.3311C76.5005 67.8229 76.0266 67.8568 75.5234 67.4326C75.4896 67.3311 75.4557 67.2295 75.4219 67.1279C75.3881 62.9639 75.3541 58.7998 75.3203 54.6357C75.1636 54.445 74.9774 54.2927 74.7617 54.1787C61.2201 54.111 47.6784 54.111 34.1367 54.1787C33.921 54.2927 33.7348 54.445 33.5781 54.6357C33.5104 61.9482 33.5104 69.2607 33.5781 76.5732C33.8723 77.2737 34.3971 77.6631 35.1523 77.7412C48.017 77.809 60.8815 77.809 73.7461 77.7412C74.5013 77.6631 75.0261 77.2737 75.3203 76.5732C75.3541 74.4742 75.3881 72.3754 75.4219 70.2764C75.5219 69.8533 75.7928 69.6501 76.2344 69.667C76.5669 69.6468 76.8038 69.7822 76.9453 70.0732C77.0131 72.3414 77.0131 74.6097 76.9453 76.8779C76.8039 77.4583 76.5331 77.9661 76.1328 78.4014C75.6656 78.8204 75.141 79.1251 74.5586 79.3154C61.1523 79.3154 47.7461 79.3154 34.3398 79.3154C33.4559 79.0247 32.7618 78.483 32.2578 77.6904C32.1363 77.4275 32.0347 77.1566 31.9531 76.8779C31.8854 69.3623 31.8854 61.8467 31.9531 54.3311C32.0605 53.9468 32.2467 53.6082 32.5117 53.3154C32.2467 53.0226 32.0605 52.684 31.9531 52.2998C31.8854 44.7842 31.8854 37.2686 31.9531 29.7529C32.2933 28.4819 33.0888 27.6694 34.3398 27.3154Z" fill="#38BDF8"/>
<path opacity="0.925" fill-rule="evenodd" clip-rule="evenodd" d="M37.5901 35.6862C38.0698 35.59 38.4591 35.7254 38.7581 36.0925C39.6182 38.6391 40.4985 41.1782 41.3987 43.7096C42.2519 41.133 43.1152 38.56 43.9886 35.9909C44.7295 35.4678 45.2373 35.6371 45.512 36.4987C44.4561 39.7175 43.3896 42.9336 42.3128 46.1471C41.5352 46.8853 40.8919 46.7837 40.3831 45.8425C39.3336 42.7956 38.2841 39.7487 37.2347 36.7018C37.1516 36.2925 37.2701 35.9539 37.5901 35.6862Z" fill="#38BDF8"/>
<path opacity="0.927" fill-rule="evenodd" clip-rule="evenodd" d="M48.7617 35.6865C49.3398 35.5606 49.7292 35.7637 49.9297 36.2959C49.9975 39.5459 49.9975 42.7959 49.9297 46.0459C49.656 46.6145 49.2328 46.7668 48.6602 46.5029C48.5382 46.4112 48.4535 46.2928 48.4063 46.1475C48.3385 42.7959 48.3385 39.4443 48.4063 36.0928C48.546 35.9704 48.6644 35.835 48.7617 35.6865Z" fill="#38BDF8"/>
<path opacity="0.921" fill-rule="evenodd" clip-rule="evenodd" d="M55.872 35.6869C57.4795 35.5063 58.8845 35.9464 60.0869 37.0072C60.3276 37.9279 59.9721 38.3172 59.0205 38.1752C58.0613 37.3702 56.9779 37.1332 55.7705 37.4642C54.8915 37.9658 54.7562 38.609 55.3642 39.3939C56.5152 39.8679 57.6663 40.3418 58.8173 40.8158C60.5564 41.8951 60.9457 43.3339 59.9853 45.1322C58.69 46.5536 57.1158 46.9768 55.2626 46.4017C54.3575 46.1273 53.5958 45.6363 52.9775 44.9291C52.6877 43.8646 53.0771 43.4753 54.1455 43.7611C55.2688 44.947 56.5892 45.2517 58.1064 44.6752C59.2251 43.6943 59.1235 42.8479 57.8017 42.1361C56.6274 41.7183 55.4764 41.2443 54.3486 40.7142C53.2275 39.6258 53.0414 38.3901 53.79 37.0072C54.3459 36.3296 55.0399 35.8895 55.872 35.6869Z" fill="#38BDF8"/>
<path opacity="0.93" fill-rule="evenodd" clip-rule="evenodd" d="M66.8401 35.6865C67.5083 35.538 67.9653 35.7749 68.2112 36.3974C69.3284 39.3427 70.4456 42.288 71.5627 45.2333C71.8677 46.316 71.4784 46.7392 70.3948 46.5029C70.0222 45.8435 69.7176 45.1495 69.4807 44.4208C67.9588 44.3194 66.4354 44.2854 64.9104 44.3193C64.6945 45.0858 64.3898 45.8137 63.9963 46.5029C63.1133 46.781 62.6901 46.4595 62.7268 45.538C63.9316 42.4313 65.1166 39.3168 66.2815 36.1943C66.4572 36.0011 66.6434 35.8318 66.8401 35.6865ZM67.1448 38.4286C66.6673 39.8245 66.1595 41.2125 65.6213 42.5927C66.6686 42.6942 67.7181 42.728 68.7698 42.6943C68.286 41.2421 67.7444 39.8203 67.1448 38.4286Z" fill="#38BDF8"/>
<path opacity="0.964" fill-rule="evenodd" clip-rule="evenodd" d="M36.5742 56.3032C41.1446 56.2863 45.7149 56.3032 50.2852 56.354C50.7084 56.5064 50.9961 56.7941 51.1484 57.2173C51.2162 63.311 51.2162 69.4048 51.1484 75.4985C50.9648 75.9529 50.6433 76.2746 50.1836 76.4634C45.7148 76.5311 41.2461 76.5311 36.7773 76.4634C36.2964 76.3549 35.9748 76.0672 35.8125 75.6001C35.7448 69.4386 35.7448 63.2772 35.8125 57.1157C36.0185 56.7915 36.2724 56.5207 36.5742 56.3032ZM37.2852 57.8267C41.3815 57.8267 45.4779 57.8267 49.5742 57.8267C49.5742 63.5142 49.5742 69.2017 49.5742 74.8892C45.4779 74.8892 41.3815 74.8892 37.2852 74.8892C37.2852 69.2017 37.2852 63.5142 37.2852 57.8267Z" fill="#38BDF8"/>
<path opacity="0.932" fill-rule="evenodd" clip-rule="evenodd" d="M54.652 57.8267C60.6443 57.8097 66.6365 57.8267 72.6286 57.8775C73.1605 58.21 73.279 58.667 72.984 59.2485C72.9079 59.3121 72.8232 59.3629 72.7301 59.4009C66.6702 59.4686 60.6104 59.4686 54.5504 59.4009C54.2441 59.2456 54.1087 58.9917 54.1442 58.6392C54.1489 58.2627 54.3182 57.9919 54.652 57.8267Z" fill="#38BDF8"/>
<path opacity="0.936" fill-rule="evenodd" clip-rule="evenodd" d="M42.7695 58.6393C45.0758 58.4131 46.8532 59.2595 48.1016 61.1783C48.4206 61.7487 48.6237 62.3581 48.7109 63.0065C48.809 65.8213 48.7751 68.6312 48.6094 71.4362C48.2011 72.86 47.2701 73.7232 45.8164 74.026C44.2592 74.0937 42.7018 74.0937 41.1445 74.026C39.5703 73.6705 38.6055 72.7057 38.25 71.1315C38.1823 68.3893 38.1823 65.6471 38.25 62.9049C38.8188 60.4808 40.3253 59.0589 42.7695 58.6393ZM42.8711 60.2643C41.0317 60.631 40.0329 61.7482 39.875 63.6158C40.4358 63.0365 40.8421 62.3594 41.0938 61.5846C41.4155 61.175 41.8048 61.0903 42.2617 61.3307C43.392 63.0988 45.017 64.0636 47.1367 64.2252C47.0273 61.5094 45.6055 60.1891 42.8711 60.2643ZM41.8555 63.7174C41.4222 64.4724 40.8298 65.0818 40.0781 65.5455C40.0296 66.0907 40.0634 66.6324 40.1797 67.1705C40.8499 69.0716 42.1872 69.901 44.1914 69.6588C46.0385 69.0627 46.9188 67.7932 46.832 65.8502C46.0279 65.7762 45.2493 65.5899 44.4961 65.2916C43.5599 64.8413 42.6797 64.3165 41.8555 63.7174ZM39.8242 69.8112C39.6442 71.0946 40.152 71.9579 41.3477 72.401C42.7695 72.4687 44.1914 72.4687 45.6133 72.401C46.7712 71.9315 47.262 71.0682 47.0859 69.8112C46.8283 70.1028 46.5405 70.3568 46.2227 70.5729C43.8998 71.8001 41.767 71.5462 39.8242 69.8112Z" fill="#38BDF8"/>
<path opacity="0.923" fill-rule="evenodd" clip-rule="evenodd" d="M54.652 61.686C56.4466 61.6691 58.2408 61.686 60.0348 61.7368C60.5839 61.9379 60.77 62.3273 60.5934 62.9048C60.4749 63.0233 60.3565 63.1417 60.2379 63.2603C58.3421 63.328 56.4463 63.328 54.5504 63.2603C54.2441 63.105 54.1087 62.8511 54.1442 62.4985C54.1489 62.1221 54.3182 61.8513 54.652 61.686Z" fill="#38BDF8"/>
<path opacity="0.923" fill-rule="evenodd" clip-rule="evenodd" d="M67.2467 61.686C69.0413 61.6691 70.8355 61.686 72.6295 61.7368C73.1093 61.9841 73.2616 62.3735 73.0865 62.9048C73.0357 63.091 72.9172 63.2095 72.7311 63.2603C70.8352 63.328 68.9394 63.328 67.0436 63.2603C66.6116 62.9129 66.5269 62.4897 66.7897 61.9907C66.9328 61.8606 67.0851 61.7591 67.2467 61.686Z" fill="#38BDF8"/>
<path opacity="0.923" fill-rule="evenodd" clip-rule="evenodd" d="M54.652 65.5454C56.4466 65.5285 58.2408 65.5454 60.0348 65.5962C60.5839 65.7973 60.77 66.1867 60.5934 66.7642C60.4749 66.8827 60.3565 67.0011 60.2379 67.1196C58.3421 67.1874 56.4463 67.1874 54.5504 67.1196C54.2441 66.9644 54.1087 66.7104 54.1442 66.3579C54.1489 65.9814 54.3182 65.7107 54.652 65.5454Z" fill="#38BDF8"/>
<path opacity="0.923" fill-rule="evenodd" clip-rule="evenodd" d="M67.2467 65.5454C69.0413 65.5285 70.8355 65.5454 72.6295 65.5962C73.1093 65.8435 73.2616 66.2329 73.0865 66.7642C73.0357 66.9503 72.9172 67.0689 72.7311 67.1196C70.8352 67.1874 68.9394 67.1874 67.0436 67.1196C66.6116 66.7723 66.5269 66.3491 66.7897 65.8501C66.9328 65.72 67.0851 65.6184 67.2467 65.5454Z" fill="#38BDF8"/>
<path opacity="0.926" fill-rule="evenodd" clip-rule="evenodd" d="M54.652 69.4048C58.9855 69.3878 63.3188 69.4048 67.652 69.4556C68.4205 69.9207 68.4544 70.4285 67.7536 70.979C63.3526 71.0468 58.9514 71.0468 54.5504 70.979C54.2441 70.8237 54.1087 70.5698 54.1442 70.2173C54.1489 69.8408 54.3182 69.57 54.652 69.4048Z" fill="#38BDF8"/>
<path opacity="0.93" fill-rule="evenodd" clip-rule="evenodd" d="M54.652 73.2642C58.9855 73.2472 63.3188 73.2642 67.652 73.315C68.4205 73.7801 68.4544 74.2879 67.7536 74.8384C63.3526 74.9061 58.9514 74.9061 54.5504 74.8384C54.2441 74.6831 54.1087 74.4292 54.1442 74.0767C54.1489 73.7002 54.3182 73.4294 54.652 73.2642Z" fill="#38BDF8"/>
</g>
<defs>
<clipPath id="clip0_557_213">
<rect width="52" height="52" fill="white" transform="translate(28.5 27.8154)"/>
</clipPath>
</defs>
</svg>
