<svg width="108" height="108" viewBox="0 0 108 108" fill="none" xmlns="http://www.w3.org/2000/svg">
<rect x="1" y="1" width="106" height="106" rx="48" stroke="#38BDF8" stroke-width="2" stroke-dasharray="2 4 6 8"/>
<g clip-path="url(#clip0_557_535)">
<path opacity="0.948" d="M68.3896 27.5645L68.415 27.5713C70.1937 28.052 71.4359 29.1359 72.1279 30.8086L72.2588 31.1514L72.2686 31.1797L72.2705 31.21C72.4016 34.4227 72.4684 37.6401 72.4727 40.8623C73.9656 41.8825 74.8935 43.2781 75.25 45.041L75.3145 45.4062L75.3164 45.418L75.3174 45.4297C75.3853 47.3977 75.3853 49.3659 75.3174 51.334L75.3145 51.3994L75.2744 51.4502C75.1041 51.6678 74.8994 51.8221 74.6582 51.8955C74.4176 51.9687 74.159 51.9562 73.8906 51.874L73.8555 51.8633L73.8262 51.8398C73.6431 51.6964 73.5042 51.5175 73.4111 51.3057L73.3945 51.2695L73.3936 51.2295C73.3599 49.3746 73.3257 47.519 73.292 45.6641C72.9071 43.8195 71.8343 42.6158 70.0537 42.0303C66.158 41.9427 62.2602 41.892 58.3604 41.8789H50.5381C46.6369 41.892 42.7378 41.9426 38.8408 42.0303C37.2184 42.503 36.1798 43.5416 35.707 45.1641C35.5742 50.8033 35.507 56.4461 35.5049 62.0928V62.1416L35.4824 62.1846C35.3432 62.4546 35.1521 62.6543 34.9004 62.7529C34.6497 62.851 34.369 62.8373 34.0742 62.7402L34.041 62.7285L34.0137 62.707C33.8307 62.5636 33.6907 62.3847 33.5977 62.1729L33.582 62.1357L33.5811 62.0947C33.5133 56.5413 33.5133 50.988 33.5811 45.4346V45.4199L33.584 45.4062C33.8817 43.4701 34.8312 41.9519 36.4258 40.8623C36.4593 37.7822 36.4929 34.7021 36.5264 31.6221V31.5967L36.5332 31.5723C37.0946 29.4889 38.417 28.1485 40.4814 27.5723L40.5078 27.5645H68.3896ZM41.5615 29.4873C40.7955 29.5611 40.1698 29.7998 39.6738 30.1934C39.1819 30.5838 38.806 31.1376 38.5508 31.8662C38.4699 34.5768 38.4844 37.2867 38.5928 39.9961C38.7557 39.9561 38.9217 39.9264 39.0898 39.9062L39.1006 39.9043H39.1123C49.3369 39.8366 59.5615 39.8366 69.7861 39.9043H69.7979L69.8086 39.9062C69.9764 39.9264 70.142 39.9562 70.3047 39.9961C70.4131 37.3183 70.4277 34.6399 70.3467 31.9609C70.1251 31.198 69.7662 30.625 69.2764 30.2285C68.7835 29.8296 68.1434 29.5951 67.3428 29.5381C58.7491 29.4873 50.1553 29.4704 41.5615 29.4873Z" fill="#38BDF8" stroke="#38BDF8" stroke-width="0.4"/>
<path opacity="0.932" d="M40.2275 45.7441C41.094 45.7314 41.9603 45.7372 42.8262 45.7627L43.6924 45.7949L43.7168 45.7959L43.7412 45.8027C44.6256 46.0679 45.272 46.6118 45.6699 47.4248L45.7461 47.5918L45.7588 47.6211L45.7617 47.6533C45.9266 49.6204 45.9602 51.5937 45.8633 53.5713L45.8623 53.5898L45.8584 53.6084C45.6165 54.6078 45.015 55.3187 44.0674 55.7256L44.043 55.7354L44.0176 55.7393C42.6438 55.9453 41.2693 55.9453 39.8955 55.7393L39.875 55.7363L39.8545 55.7285C39.0393 55.4205 38.4721 54.8534 38.1641 54.0381L38.1543 54.0117L38.1523 53.9834C37.9861 51.9841 37.9516 49.9783 38.0498 47.9658L38.0508 47.9453L38.0557 47.9258C38.3455 46.7895 39.0591 46.0566 40.1777 45.751L40.2021 45.7441H40.2275ZM40.5908 47.7676C40.365 47.8983 40.1924 48.0836 40.0723 48.3301C40.0071 49.987 40.0072 51.6439 40.0723 53.3008C40.1985 53.524 40.372 53.6965 40.5957 53.8223C41.5687 53.908 42.5343 53.8755 43.4932 53.7266C43.6343 53.6033 43.7493 53.462 43.8398 53.3008C43.9048 51.6451 43.9049 49.9896 43.8398 48.334C43.7142 48.1129 43.542 47.9415 43.3203 47.8164C42.4111 47.7688 41.5012 47.7526 40.5908 47.7676Z" fill="#38BDF8" stroke="#38BDF8" stroke-width="0.4"/>
<path opacity="0.932" d="M52.7197 45.7441C53.5862 45.7314 54.4524 45.7372 55.3184 45.7627L56.1846 45.7949L56.2031 45.7959L56.2217 45.7998C56.7845 45.9338 57.2518 46.1785 57.6123 46.5391C57.9726 46.8995 58.2166 47.3661 58.3506 47.9287L58.3555 47.9482V47.9678C58.4234 49.8684 58.4234 51.7693 58.3555 53.6699L58.3545 53.7051L58.3418 53.7373C57.9939 54.6007 57.4907 55.2285 56.8223 55.5947C56.1629 55.956 55.3675 56.0478 54.4512 55.8955C53.6124 56.045 52.8677 55.976 52.2285 55.6699C51.5805 55.3595 51.0613 54.8161 50.666 54.0596L50.6475 54.0244L50.6445 53.9834C50.4783 51.9841 50.4438 49.9783 50.542 47.9658L50.543 47.9453L50.5479 47.9258C50.8377 46.7895 51.5513 46.0566 52.6699 45.751L52.6943 45.7441H52.7197ZM53.0957 47.7676C52.885 47.9207 52.7081 48.1114 52.5645 48.3428C52.4998 49.9955 52.4996 51.6481 52.5645 53.3008C52.6901 53.523 52.8627 53.6947 53.085 53.8203C53.9942 53.8833 54.9033 53.8833 55.8125 53.8203C56.0342 53.6951 56.2064 53.524 56.332 53.3027C56.3971 51.6464 56.3971 49.9903 56.332 48.334C56.2064 48.1129 56.0342 47.9415 55.8125 47.8164C54.9075 47.769 54.0018 47.753 53.0957 47.7676Z" fill="#38BDF8" stroke="#38BDF8" stroke-width="0.4"/>
<path opacity="0.932" d="M65.2129 45.7441C66.0794 45.7314 66.9456 45.7372 67.8115 45.7627L68.6777 45.7949L68.6963 45.7959L68.7148 45.7998C69.2777 45.9338 69.745 46.1785 70.1055 46.5391C70.4658 46.8995 70.7098 47.3661 70.8438 47.9287L70.8486 47.9482L70.8496 47.9678C70.9175 49.8684 70.9175 51.7693 70.8496 53.6699L70.8486 53.6953L70.8408 53.7197C70.558 54.6633 69.9584 55.3364 69.0527 55.7256L69.0283 55.7354L69.0029 55.7393C67.6294 55.9453 66.2554 55.9453 64.8818 55.7393L64.8545 55.7354L64.8301 55.7246C64.0566 55.3828 63.4961 54.8213 63.1543 54.0479L63.1406 54.0176L63.1377 53.9834C62.9728 51.9828 62.9382 49.9769 63.0352 47.9658L63.0371 47.9414L63.0439 47.918C63.3715 46.8192 64.0801 46.0907 65.1562 45.7529L65.1836 45.7441H65.2129ZM65.5889 47.7676C65.3787 47.9203 65.202 48.1103 65.0586 48.3408C64.9938 49.9948 64.9936 51.6487 65.0586 53.3027C65.1841 53.524 65.3565 53.6951 65.5781 53.8203C66.4873 53.8833 67.3964 53.8833 68.3057 53.8203C68.5274 53.6951 68.6996 53.524 68.8252 53.3027C68.8902 51.6464 68.8903 49.9903 68.8252 48.334C68.6995 48.1129 68.5274 47.9415 68.3057 47.8164C67.4007 47.769 66.495 47.7529 65.5889 47.7676Z" fill="#38BDF8" stroke="#38BDF8" stroke-width="0.4"/>
<path opacity="0.954" d="M74.3574 53.0566C74.554 53.0391 74.7384 53.0665 74.9014 53.1533C75.0709 53.2438 75.2006 53.3887 75.2949 53.5713L75.3174 53.6143V53.6621C75.3342 59.6093 75.3843 65.5563 75.4678 71.5029C76.796 72.0371 77.6413 72.9935 77.9902 74.3594L78.0557 74.6475L78.0586 74.6602V74.6729C78.1269 75.7309 78.1269 76.7896 78.0586 77.8477L78.0576 77.8633L78.0547 77.8799C77.8103 78.9376 77.1668 79.637 76.1416 79.9551L76.1123 79.9639H32.7861L32.7568 79.9551C31.7316 79.637 31.0881 78.9376 30.8438 77.8799L30.8408 77.8633L30.8398 77.8477C30.7716 76.7896 30.7716 75.7309 30.8398 74.6729V74.6602L30.8428 74.6475C31.1427 73.1267 32.0116 72.0728 33.4326 71.502C33.5144 69.1781 33.5644 66.8535 33.5811 64.5283L33.582 64.4629L33.6211 64.4102C33.8878 64.0545 34.1937 63.8223 34.543 63.8223C34.8486 63.8223 35.1213 63.9995 35.3633 64.2822L35.4648 64.4102L35.5029 64.4609L35.5049 64.5254C35.5542 66.7621 35.5712 68.9991 35.5566 71.2363H48.3574C48.3422 68.1194 48.3594 65.0024 48.4092 61.8857L48.4102 61.8672L48.4141 61.8477C48.6797 60.5856 49.4189 59.7025 50.6162 59.2158L50.6436 59.2041L50.6729 59.2021C51.9255 59.0873 53.1838 59.0361 54.4473 59.0488H54.4502C55.3979 59.0393 56.3425 59.0657 57.2842 59.1279L58.2256 59.2021L58.2549 59.2041L58.2822 59.2158C59.4796 59.7025 60.2187 60.5856 60.4844 61.8477L60.4883 61.8672L60.4893 61.8857C60.539 65.0024 60.5562 68.1194 60.541 71.2363H73.3428C73.3268 65.4117 73.3433 59.5871 73.3936 53.7627V53.7354L73.4014 53.71C73.4645 53.4863 73.5774 53.301 73.7549 53.1826C73.9269 53.068 74.1339 53.0343 74.3574 53.0566ZM34.4756 73.2598C33.6458 73.5295 33.1124 74.0795 32.8613 74.9268C32.7971 75.7767 32.7969 76.6266 32.8604 77.4766C32.998 77.7722 33.2201 77.9389 33.5469 77.9902C47.4814 78.0579 61.416 78.0578 75.3506 77.9902C75.6777 77.9391 75.8994 77.7723 76.0371 77.4766C76.1007 76.6262 76.1005 75.7761 76.0361 74.9258C75.8032 74.0828 75.2737 73.55 74.4258 73.3105C61.1091 73.2599 47.7924 73.2429 34.4756 73.2598ZM51.9307 60.9707C51.2146 61.0689 50.7215 61.4495 50.4336 62.1338C50.3844 65.1678 50.3677 68.202 50.3828 71.2363H58.5156C58.5307 68.2014 58.5131 65.1665 58.4639 62.1318C58.3313 61.7868 58.145 61.53 57.9082 61.3506C57.6645 61.166 57.3556 61.0537 56.9717 61.0225V61.0215C55.2917 60.9712 53.6113 60.9541 51.9307 60.9707Z" fill="#38BDF8" stroke="#38BDF8" stroke-width="0.4"/>
<path opacity="0.938" d="M40.126 59.0488C41.3488 59.0318 42.5712 59.0487 43.793 59.0996L43.8184 59.1006L43.8418 59.1074C44.9193 59.4256 45.598 60.1413 45.8584 61.2334L45.8633 61.2529V61.2725C45.9312 63.1393 45.9312 65.0063 45.8633 66.873V66.8955L45.8574 66.916C45.6873 67.5657 45.389 68.0873 44.9551 68.4658C44.5212 68.8443 43.9656 69.0681 43.3008 69.1465L43.293 69.1475C42.1905 69.2343 41.0924 69.1995 39.999 69.0439L39.9795 69.041L39.96 69.0352C39.1206 68.7377 38.5204 68.1723 38.168 67.3506L38.1543 67.3213L38.1523 67.2881C37.9861 65.2888 37.9516 63.283 38.0498 61.2705L38.0508 61.25L38.0557 61.2305C38.3341 60.1423 39.0093 59.4114 40.0654 59.0586L40.0947 59.0488H40.126ZM43.4209 61.1172C42.5744 60.9836 41.7212 60.9345 40.8613 60.9707C40.5129 61.0329 40.2536 61.2184 40.0723 61.54C40.0072 63.2305 40.0071 64.9209 40.0723 66.6113C40.2142 66.9012 40.4394 67.0681 40.7656 67.124C41.6578 67.2131 42.5419 67.1811 43.4189 67.0283C43.6377 66.9278 43.7739 66.7662 43.8389 66.5283C43.9051 64.891 43.9051 63.2536 43.8389 61.6162C43.7739 61.3794 43.6384 61.2176 43.4209 61.1172Z" fill="#38BDF8" stroke="#38BDF8" stroke-width="0.4"/>
<path opacity="0.938" d="M65.1104 59.0488C66.0276 59.0361 66.9447 59.0419 67.8613 59.0674L68.7783 59.0996L68.8008 59.1006L68.8232 59.1064C69.6727 59.3448 70.2887 59.8589 70.6602 60.6377L70.7314 60.7969L70.7432 60.8262L70.7461 60.8574C70.911 62.858 70.9456 64.8639 70.8486 66.875L70.8477 66.8916L70.8438 66.9082C70.644 67.8319 70.1136 68.5093 69.2637 68.9248L69.2422 68.9346L69.2178 68.9404C67.8139 69.2422 66.4007 69.2768 64.9795 69.0439L64.9609 69.041L64.9443 69.0342C63.9303 68.6702 63.2899 67.9571 63.04 66.9121L63.0352 66.8926L63.0342 66.873C62.9663 65.0063 62.9663 63.1393 63.0342 61.2725L63.0352 61.251L63.041 61.2305C63.3204 60.1417 63.9945 59.4105 65.0498 59.0586L65.0791 59.0488H65.1104ZM65.8418 60.9707C65.6371 60.9998 65.4762 61.071 65.3506 61.1768C65.2279 61.2801 65.1296 61.4263 65.0586 61.624C64.9927 63.2578 64.9926 64.8916 65.0586 66.5254C65.1144 66.7018 65.1979 66.8326 65.3047 66.9268C65.4157 67.0247 65.563 67.093 65.7559 67.125H65.7549C66.6437 67.2133 67.5246 67.1811 68.3984 67.0293C68.5897 66.9355 68.7285 66.7966 68.8242 66.6074C68.8894 64.9163 68.8895 63.2253 68.8242 61.5342C68.7446 61.375 68.6458 61.2579 68.5273 61.1768C68.4322 61.1117 68.3191 61.0651 68.1855 61.04L68.0449 61.0225C67.3113 60.9724 66.577 60.9545 65.8418 60.9707Z" fill="#38BDF8" stroke="#38BDF8" stroke-width="0.4"/>
</g>
<defs>
<clipPath id="clip0_557_535">
<rect width="52" height="52" fill="white" transform="translate(28.5 27.8154)"/>
</clipPath>
</defs>
</svg>
