<svg width="108" height="108" viewBox="0 0 108 108" fill="none" xmlns="http://www.w3.org/2000/svg">
<rect x="1" y="1" width="106" height="106" rx="48" stroke="#38BDF8" stroke-width="2" stroke-dasharray="2 4 6 8"/>
<path opacity="0.929" d="M37.2793 40.21C39.0127 40.1676 40.7389 40.2017 42.458 40.3115L43.1953 40.3633L43.3594 40.376L43.4121 40.5312C43.9699 42.161 44.5051 43.8007 45.0205 45.4492C45.3112 45.3894 45.6054 45.3443 45.9033 45.3145C45.5438 43.9677 45.165 42.6273 44.7646 41.2939L44.748 41.2383L44.7568 41.1816C44.813 40.8344 44.9795 40.5433 45.25 40.3184L45.3164 40.2637L45.4014 40.2607C46.8529 40.2098 48.3044 40.1972 49.7559 40.2227L51.208 40.2607L51.2891 40.2637L51.3535 40.3145C51.5428 40.4629 51.6868 40.648 51.7832 40.8672L51.7881 40.8779L51.792 40.8896C52.1922 42.1062 52.5628 43.3298 52.9062 44.5596C55.3123 44.342 57.7176 44.1612 60.1221 44.0186L60.1934 44.0146L60.2559 44.0488C62.6582 45.3517 65.0304 46.7077 67.373 48.1162H67.374C67.6098 48.2562 67.8586 48.3597 68.1201 48.4297C71.4932 47.7758 74.88 47.2038 78.2803 46.7129L78.3242 46.7061L78.3672 46.7148C78.5722 46.7572 78.7598 46.8366 78.9287 46.9512L79.0918 47.0771L79.165 47.1436L79.1748 47.2412C79.5606 51.3594 78.5109 55.0779 76.0283 58.3838L76.0146 58.4014L75.998 58.417C73.7862 60.4595 71.8367 62.7092 70.1514 65.167C69.9002 65.6316 69.7065 66.1185 69.5693 66.627L69.5645 66.6445L69.5566 66.6621C69.4602 66.8815 69.3164 67.0673 69.127 67.2158L69.0605 67.2676L68.9766 67.2686C64.5391 67.3363 60.1015 67.3363 55.6641 67.2686L55.5791 67.2676L55.5127 67.2148C55.2329 66.9927 55.043 66.7256 55.0186 66.4102C54.9944 66.0957 55.1395 65.7996 55.3799 65.5312L55.4316 65.4746L55.9121 65.3545L55.9414 65.3467H55.9717C59.9477 65.3299 63.9233 65.2799 67.8984 65.1973C68.4819 63.9548 69.1979 62.8005 70.0469 61.7344L70.0527 61.7256C71.3675 60.2074 72.7563 58.7509 74.2188 57.3555C76.1536 54.8608 77.1757 52.0376 77.293 48.8779C61.6213 51.2562 46.3866 55.2786 31.5889 60.9463C31.5448 62.3952 31.5288 63.8444 31.541 65.2939C32.9328 65.284 34.3244 65.2914 35.7158 65.3154L37.1904 65.3467L37.2109 65.3477L37.2314 65.3516C37.5646 65.416 37.8445 65.5583 38.0049 65.8174C38.1643 66.0751 38.1701 66.3917 38.0859 66.7246L38.085 66.7285C38.0109 67.0001 37.8253 67.1857 37.5537 67.2598L37.5254 67.2676L37.4951 67.2686C35.0531 67.3364 32.611 67.3364 30.1689 67.2686L30.0869 67.2666L30.0215 67.2158C29.8321 67.0674 29.6882 66.8815 29.5918 66.6621L29.5723 66.6182L29.5703 66.5693C29.5024 64.3975 29.5024 62.2255 29.5703 60.0537L29.5723 60.0107L29.5879 59.9697C29.7519 59.5527 30.0618 59.2806 30.4951 59.166C31.8814 58.6118 33.2828 58.1063 34.6982 57.6465C34.6828 54.3199 34.7001 50.9933 34.75 47.667L34.751 47.5938L34.792 47.5322C34.9609 47.278 35.202 47.1218 35.501 47.0723L36.873 46.7568C37.2443 46.6743 37.6161 46.5948 37.9883 46.5166C37.534 44.8991 37.1001 43.2733 36.6875 41.6387V41.6377C36.6116 41.3702 36.6019 41.1105 36.6787 40.8691C36.7568 40.6241 36.9161 40.4214 37.1367 40.2588L37.2002 40.2119L37.2793 40.21ZM62.8096 48.0205C58.3085 48.7757 53.8111 49.6084 49.3174 50.5176L47.3906 50.9121C43.8099 51.6574 40.2791 52.5876 36.7979 53.7021C36.6363 54.7397 36.5734 55.7964 36.6084 56.873C45.8942 53.696 55.3396 51.0832 64.9443 49.0332C64.3945 48.7083 63.8449 48.3836 63.2949 48.0586C63.135 48.0217 62.9735 48.0086 62.8096 48.0205ZM59.4883 45.9941C55.2498 46.3334 51.0073 46.7513 46.7607 47.2451L44.9326 47.4619C42.1973 47.7965 39.4838 48.257 36.792 48.8438C36.6366 49.7442 36.5751 50.6635 36.6074 51.6025C38.0888 51.1499 39.5798 50.724 41.0801 50.3242L41.0859 50.3223L43.5615 49.7373C49.1175 48.4495 54.706 47.3297 60.3262 46.374C60.053 46.2308 59.7744 46.1029 59.4883 45.9941ZM38.9297 42.2305C39.2821 43.5375 39.6109 44.8508 39.9141 46.1709C40.9328 46.0215 41.9474 45.8472 42.958 45.6494C42.6211 44.5163 42.261 43.3922 41.877 42.2773C40.8949 42.2369 39.9125 42.2214 38.9297 42.2305ZM47.1602 42.2285C47.4288 43.1705 47.6866 44.1153 47.9326 45.0635C48.9134 44.9545 49.8961 44.8675 50.8809 44.8018C50.6663 43.9631 50.409 43.1364 50.1055 42.3223C49.1251 42.241 48.1435 42.2105 47.1602 42.2285Z" fill="#38BDF8" stroke="#38BDF8" stroke-width="0.5"/>
<path opacity="0.835" fill-rule="evenodd" clip-rule="evenodd" d="M64.4024 54.5772C65.2428 54.4965 65.5645 54.869 65.3672 55.6944C64.9607 56.194 64.5205 56.2279 64.0469 55.7959C63.8281 55.2851 63.9466 54.8788 64.4024 54.5772Z" fill="#38BDF8"/>
<path opacity="0.84" fill-rule="evenodd" clip-rule="evenodd" d="M60.3401 55.4912C61.1575 55.5371 61.4453 55.9434 61.2033 56.71C60.9434 56.9993 60.6218 57.084 60.2385 56.9639C59.8615 56.7086 59.7431 56.3532 59.883 55.8975C60.0249 55.738 60.1773 55.6025 60.3401 55.4912Z" fill="#38BDF8"/>
<path opacity="0.845" fill-rule="evenodd" clip-rule="evenodd" d="M56.0742 56.507C56.7106 56.3665 57.0831 56.6035 57.1914 57.2179C56.9753 58.0179 56.5183 58.1872 55.8203 57.7257C55.5835 57.2514 55.6681 56.8452 56.0742 56.507Z" fill="#38BDF8"/>
<path opacity="0.901" fill-rule="evenodd" clip-rule="evenodd" d="M41.9573 65.5461C42.8121 65.5049 43.6585 65.5556 44.4963 65.6984C44.9026 66.1385 44.9026 66.5787 44.4963 67.0187C43.5823 67.0865 42.6682 67.0865 41.7541 67.0187C41.6088 66.9715 41.4904 66.8868 41.3987 66.7648C41.1992 66.1587 41.3854 65.7525 41.9573 65.5461Z" fill="#38BDF8"/>
<path opacity="0.898" fill-rule="evenodd" clip-rule="evenodd" d="M48.9651 65.5461C49.8199 65.5049 50.6664 65.5556 51.5042 65.6984C51.9104 66.1385 51.9104 66.5787 51.5042 67.0187C50.5563 67.0865 49.6083 67.0865 48.6604 67.0187C48.0575 66.3593 48.1591 65.8684 48.9651 65.5461Z" fill="#38BDF8"/>
</svg>
