<svg width="108" height="108" viewBox="0 0 108 108" fill="none" xmlns="http://www.w3.org/2000/svg">
<rect x="1" y="1" width="106" height="106" rx="48" stroke="#38BDF8" stroke-width="2" stroke-dasharray="2 4 6 8"/>
<g clip-path="url(#clip0_557_425)">
<path opacity="0.945" fill-rule="evenodd" clip-rule="evenodd" d="M73.1367 27.7646C74.0508 27.7646 74.9648 27.7646 75.8789 27.7646C76.9518 27.9622 77.9335 28.3854 78.8242 29.0342C79.6812 29.9864 80.2229 31.0866 80.4492 32.335C80.4492 33.2152 80.4492 34.0954 80.4492 34.9756C80.2612 35.9964 79.8718 36.9443 79.2812 37.8193C76.5898 40.3754 73.8984 42.9313 71.207 45.4873C70.5683 45.8676 69.9759 45.8168 69.4297 45.335C69.2266 44.8949 69.2266 44.4547 69.4297 44.0146C71.9032 41.5692 74.4254 39.1825 76.9961 36.8545C77.8601 35.9902 78.2663 34.9407 78.2148 33.7061C78.2542 32.6094 77.9496 31.6277 77.3008 30.7607C75.778 29.9105 74.1869 29.775 72.5273 30.3545C72.2738 30.4642 72.0368 30.5996 71.8164 30.7607C68.5326 34.2477 65.2487 37.7347 61.9648 41.2217C60.6551 42.071 59.267 42.2064 57.8008 41.6279C49.3936 39.8246 40.9809 38.0472 32.5625 36.2959C31.9945 36.424 31.6729 36.7795 31.5977 37.3623C31.6605 37.7249 31.8298 38.0296 32.1055 38.2764C38.217 41.5523 44.3446 44.8023 50.4883 48.0264C51.8933 49.1273 52.3164 50.5322 51.7578 52.2412C51.6058 52.6134 51.4026 52.9519 51.1484 53.2568C47.306 57.3701 43.4635 61.4834 39.6211 65.5967C39.2617 65.7494 38.8893 65.7832 38.5039 65.6982C36.4049 64.7842 34.306 63.8701 32.207 62.9561C31.1569 62.8215 30.666 63.2785 30.7344 64.3271C30.8406 64.4886 30.9591 64.641 31.0898 64.7842C33.6067 66.5901 36.095 68.4352 38.5547 70.3193C40.2982 72.6722 42.0416 75.025 43.7852 77.3779C44.8765 77.6755 45.4013 77.2523 45.3594 76.1084C44.4453 74.0094 43.5312 71.9105 42.6172 69.8115C42.3455 69.0832 42.5317 68.4908 43.1758 68.0342C44.9023 66.443 46.6289 64.8519 48.3555 63.2607C49.3456 62.8137 49.955 63.1184 50.1836 64.1748C50.1719 64.4523 50.0873 64.7062 49.9297 64.9365C48.239 66.441 46.5971 67.9982 45.0039 69.6084C45.7994 71.4027 46.5951 73.1969 47.3906 74.9912C48.0916 77.3125 47.3299 78.9037 45.1055 79.7646C44.5638 79.7646 44.0221 79.7646 43.4805 79.7646C42.7836 79.5251 42.1911 79.1188 41.7031 78.5459C40.0808 76.2972 38.4389 74.0628 36.7773 71.8428C34.207 69.9326 31.651 68.0029 29.1094 66.0537C28.8591 65.6542 28.6391 65.2479 28.4492 64.835C28.4492 64.2594 28.4492 63.684 28.4492 63.1084C29.3826 60.8831 31.0076 60.1553 33.3242 60.9248C35.1091 61.7073 36.8865 62.5029 38.6562 63.3115C42.2448 59.4521 45.8334 55.5928 49.4219 51.7334C49.9111 50.9979 49.7926 50.3715 49.0664 49.8545C42.9227 46.6304 36.7951 43.3804 30.6836 40.1045C29.3761 38.8864 29.0545 37.4476 29.7188 35.7881C30.513 34.367 31.7148 33.8084 33.3242 34.1123C41.9599 35.9275 50.5927 37.7556 59.2227 39.5967C59.6385 39.6746 60.0447 39.6408 60.4414 39.4951C63.7252 36.0081 67.0091 32.5212 70.293 29.0342C71.1552 28.4032 72.1031 27.9801 73.1367 27.7646Z" fill="#38BDF8"/>
<path opacity="0.952" fill-rule="evenodd" clip-rule="evenodd" d="M80.4488 54.0693C80.4488 57.7933 80.4488 61.5172 80.4488 65.2412C79.7745 69.1168 77.9802 72.3837 75.066 75.042C72.9164 76.9463 70.5465 78.5205 67.9566 79.7646C67.6181 79.7646 67.2795 79.7646 66.941 79.7646C64.351 78.5205 61.9812 76.9463 59.8316 75.042C57.4932 72.9391 55.8513 70.3832 54.9058 67.374C54.7157 66.6736 54.5803 65.9627 54.4996 65.2412C54.3993 61.4409 54.4331 57.6493 54.6011 53.8662C54.7769 53.6512 54.997 53.4989 55.2613 53.4092C59.3169 52.0403 63.3794 50.7031 67.4488 49.3975C71.5182 50.7031 75.5807 52.0403 79.6363 53.4092C79.9878 53.5417 80.2587 53.7617 80.4488 54.0693ZM67.2457 51.7334C70.8815 52.8833 74.5038 54.0851 78.1129 55.3389C78.1802 56.9057 78.214 58.4799 78.2144 60.0615C78.874 64.5089 77.7736 68.4361 74.9136 71.8428C72.7612 74.1622 70.2729 76.0241 67.4488 77.4287C63.8207 75.7135 60.8584 73.2083 58.5621 69.9131C57.7037 68.5344 57.1281 67.0449 56.8355 65.4443C56.7222 63.6534 56.6714 61.8591 56.6832 60.0615C56.6836 58.4799 56.7174 56.9057 56.7847 55.3389C60.293 54.1639 63.78 52.9621 67.2457 51.7334Z" fill="#38BDF8"/>
<path opacity="0.938" fill-rule="evenodd" clip-rule="evenodd" d="M73.5427 59.1477C74.7817 59.1163 75.2388 59.6918 74.9138 60.8743C72.2562 63.5318 69.5987 66.1893 66.9411 68.8469C66.3377 69.0861 65.813 68.9676 65.3669 68.4915C63.9112 66.6295 62.4554 64.7675 60.9997 62.9055C60.7573 61.9974 61.0958 61.4558 62.0153 61.2805C62.2828 61.3246 62.5367 61.4092 62.777 61.5344C64.0151 63.0263 65.2338 64.5327 66.4333 66.054C68.777 63.71 71.1468 61.408 73.5427 59.1477Z" fill="#38BDF8"/>
</g>
<defs>
<clipPath id="clip0_557_425">
<rect width="52" height="52" fill="white" transform="translate(28.5 27.8154)"/>
</clipPath>
</defs>
</svg>
