<svg width="108" height="108" viewBox="0 0 108 108" fill="none" xmlns="http://www.w3.org/2000/svg">
<rect x="1" y="1" width="106" height="106" rx="48" stroke="#38BDF8" stroke-width="2" stroke-dasharray="2 4 6 8"/>
<g clip-path="url(#clip0_557_264)">
<path opacity="0.935" d="M65.4512 28.584L65.4834 28.5957C66.5469 28.9689 67.2364 29.6951 67.5381 30.7578L67.5928 30.9746L67.5967 30.9922L67.5977 31.0098C67.6457 32.0975 67.6617 33.1857 67.6494 34.2744C68.7144 34.2895 69.5921 34.5577 70.2646 35.1025C70.9797 35.6818 71.4378 36.5507 71.6562 37.6836L71.6602 37.7021V37.7207C71.7279 48.4192 71.7279 59.1179 71.6602 69.8164V69.8516L71.6475 69.8848C71.5336 70.1909 71.3569 70.4262 71.1006 70.5488C70.8453 70.6708 70.5483 70.6637 70.2324 70.5654L70.1855 70.5508L70.1514 70.5156L69.7373 70.1016V70.0186C69.7362 59.1631 69.6682 48.3112 69.5342 37.4629C69.2951 36.9066 68.8963 36.5382 68.3252 36.3467C67.118 36.3299 65.9103 36.3136 64.7031 36.2969L61.0469 36.2461L61.0137 36.2451L60.9814 36.2334C60.6757 36.1214 60.441 35.9459 60.3184 35.6895C60.1963 35.4343 60.2027 35.1368 60.2998 34.8193L60.3145 34.7715L60.3506 34.7363L60.7617 34.3252L60.8408 34.3223C62.4352 34.2735 64.03 34.2569 65.625 34.2705C65.6368 33.2687 65.6205 32.2675 65.5742 31.2666C65.4823 31.0429 65.3595 30.8853 65.21 30.7812C65.0578 30.6754 64.8644 30.6155 64.6191 30.6104C59.2438 31.7807 53.8761 32.9893 48.5156 34.2344C51.848 34.2634 55.1802 34.2933 58.5127 34.3223L58.5801 34.3232L58.6338 34.3643C58.9988 34.6476 59.2358 34.9686 59.2119 35.3262C59.188 35.6816 58.9123 35.9734 58.5137 36.2168L58.4658 36.2461H58.4092C52.0426 36.2468 45.6841 36.3132 39.334 36.4463C39.304 36.5058 39.2783 36.5679 39.2607 36.6348C39.227 40.9911 39.1939 45.3517 39.1602 49.708V49.7529L39.1406 49.7939C39.0556 49.9687 38.9349 50.1081 38.7754 50.1992C38.6211 50.2874 38.4446 50.3205 38.2549 50.3115L38.2559 50.3125C37.9112 50.3238 37.6166 50.1978 37.3887 49.9404L37.3408 49.8867L37.3389 49.8154C37.1711 45.3487 37.1373 40.8752 37.2373 36.3965V36.3857L37.2383 36.374C37.3083 35.8644 37.4857 35.4309 37.7764 35.084C38.0671 34.7372 38.4621 34.4884 38.9502 34.332L38.958 34.3291L38.9668 34.3271C47.247 32.4447 55.5068 30.5326 63.7461 28.5898L63.7695 28.584H65.4512Z" fill="#38BDF8" stroke="#38BDF8" stroke-width="0.4"/>
<path opacity="0.939" fill-rule="evenodd" clip-rule="evenodd" d="M53.5353 42.7877C58.7241 42.7155 62.1603 45.1191 63.8439 49.9987C64.7079 53.8722 63.7091 57.173 60.8478 59.901C57.6604 62.4112 54.1735 62.919 50.3868 61.4244C46.3073 59.3102 44.4284 55.9417 44.7501 51.319C45.6684 46.3888 48.5967 43.5451 53.5353 42.7877ZM54.2462 44.4127C53.9818 44.626 53.7278 44.8629 53.4845 45.1236C52.8089 46.2533 52.3857 47.4721 52.215 48.7799C53.7061 48.8137 55.1956 48.7798 56.6837 48.6783C56.4399 47.5912 56.0844 46.5418 55.6173 45.5299C55.3547 44.9112 54.8976 44.5388 54.2462 44.4127ZM51.504 44.9205C49.6904 45.7345 48.2686 47.0041 47.2384 48.7291C48.3233 48.8136 49.4067 48.7968 50.4884 48.6783C50.7152 47.381 51.1214 46.1454 51.7072 44.9713C51.6468 44.9242 51.5791 44.9072 51.504 44.9205ZM57.1915 44.9205C57.753 46.1502 58.1253 47.4367 58.3087 48.7799C59.3926 48.7969 60.476 48.7799 61.5587 48.7291C60.5554 46.941 59.0996 45.6715 57.1915 44.9205ZM46.629 50.4049C47.8478 50.4049 49.0665 50.4049 50.2853 50.4049C50.1551 51.8942 50.1551 53.3838 50.2853 54.8737C49.0665 54.8737 47.8478 54.8737 46.629 54.8737C46.2291 53.3797 46.2291 51.89 46.629 50.4049ZM51.9103 50.4049C53.5691 50.4049 55.228 50.4049 56.8868 50.4049C57.0204 51.8941 57.0204 53.3836 56.8868 54.8737C55.228 54.8737 53.5691 54.8737 51.9103 54.8737C51.7805 53.3838 51.7805 51.8942 51.9103 50.4049ZM58.5118 50.4049C59.7644 50.4049 61.0171 50.4049 62.2697 50.4049C62.3912 51.1121 62.4928 51.823 62.5743 52.5377C62.5187 53.2986 62.3833 54.0434 62.1681 54.7721C60.9512 54.8735 59.7324 54.9074 58.5118 54.8737C58.6438 53.3821 58.6438 51.8926 58.5118 50.4049ZM47.4415 56.4986C48.491 56.4986 49.5405 56.4986 50.59 56.4986C50.7349 57.7725 51.1072 58.9743 51.7072 60.1041C49.8101 59.4776 48.3882 58.2757 47.4415 56.4986ZM52.215 56.4986C53.6707 56.4986 55.1265 56.4986 56.5822 56.4986C56.4054 57.9613 55.8638 59.2646 54.9572 60.4088C54.6679 60.6648 54.3632 60.6987 54.0431 60.5104C53.4286 59.9761 53.0055 59.316 52.7736 58.5299C52.5237 57.8687 52.3375 57.1917 52.215 56.4986ZM58.3087 56.4986C59.3588 56.4818 60.4082 56.4986 61.4572 56.5494C60.431 58.1891 59.0261 59.3908 57.2423 60.1549C57.7216 58.9845 58.0771 57.7657 58.3087 56.4986Z" fill="#38BDF8"/>
<path opacity="0.961" d="M39.2119 65.6162C39.2288 69.6699 39.2448 73.7236 39.2617 77.7773C39.279 77.8707 39.3215 77.9487 39.3926 78.0166C44.1867 78.1226 48.9852 78.1697 53.7881 78.1553H53.79C58.6724 78.1693 63.5516 78.1218 68.4277 78.0156C68.9788 77.8327 69.3411 77.4989 69.5371 77.0088C69.6651 75.3313 69.732 73.6489 69.7373 71.9619V71.8721L69.8047 71.8135C70.1216 71.5327 70.4531 71.3742 70.7891 71.415C71.1268 71.4561 71.4034 71.6899 71.6289 72.0391L71.6582 72.084L71.6611 72.1377C71.755 73.8801 71.7206 75.6192 71.5586 77.3545L71.5566 77.377L71.5488 77.3984C71.107 78.7304 70.1534 79.5795 68.7168 79.9385L68.6924 79.9443H38.873L38.8379 79.9307C37.9266 79.5783 37.3837 78.9355 37.2402 78.0146L37.2373 78.001V77.9863C37.1696 69.8639 37.1696 61.7406 37.2373 53.6182L37.2383 53.5596L37.2695 53.5107C37.4973 53.1613 37.7756 52.9278 38.1133 52.8867C38.4495 52.8459 38.7801 53.0045 39.0947 53.2861L39.1602 53.3457L39.1611 53.4346C39.178 57.4951 39.195 61.5557 39.2119 65.6162Z" fill="#38BDF8" stroke="#38BDF8" stroke-width="0.4"/>
<path opacity="0.991" fill-rule="evenodd" clip-rule="evenodd" d="M45.1055 65.436C51.3347 65.4191 57.564 65.436 63.793 65.4868C64.0841 65.6283 64.2194 65.8653 64.1992 66.1978C64.2194 66.5303 64.0841 66.7672 63.793 66.9087C57.5639 66.9764 51.3346 66.9764 45.1055 66.9087C44.8144 66.7672 44.679 66.5303 44.6992 66.1978C44.6921 65.8559 44.8275 65.602 45.1055 65.436Z" fill="#38BDF8"/>
<path opacity="0.93" fill-rule="evenodd" clip-rule="evenodd" d="M48.5578 69.8032C52.485 69.7863 56.4121 69.8032 60.3391 69.854C60.8504 70.16 60.9689 70.5832 60.6945 71.1235C60.6028 71.2455 60.4844 71.3302 60.3391 71.3775C56.4119 71.4452 52.4849 71.4452 48.5578 71.3775C48.0464 71.0714 47.9279 70.6482 48.2023 70.1079C48.3186 69.9925 48.4371 69.891 48.5578 69.8032Z" fill="#38BDF8"/>
</g>
<defs>
<clipPath id="clip0_557_264">
<rect width="52" height="52" fill="white" transform="translate(28.5 28.3154)"/>
</clipPath>
</defs>
</svg>
