<svg width="124" height="102" viewBox="0 0 124 102" fill="none" xmlns="http://www.w3.org/2000/svg">
<path opacity="0.973" fill-rule="evenodd" clip-rule="evenodd" d="M96.9965 4.08398C99.3239 4.11456 101.504 4.61261 103.536 5.57812C104.832 6.44588 106.043 7.37558 107.168 8.36719C112.571 9.84742 115.033 12.9353 114.555 17.6309C114.717 17.8965 114.878 18.1621 115.039 18.4277C116.674 19.349 118.329 20.2454 120.004 21.1172C120.973 21.6828 121.538 22.4464 121.7 23.4082C121.409 24.4284 120.602 24.9264 119.278 24.9023C111.92 25.1117 104.574 24.979 97.2387 24.5039C96.6226 24.0612 96.6226 23.6295 97.2387 23.209C99.2711 23.0671 101.209 22.6354 103.051 21.9141C103.383 21.627 103.625 21.2949 103.778 20.918C103.12 20.1833 102.232 19.7849 101.114 19.7227C95.5165 19.345 89.9462 19.5442 84.4028 20.3203C82.9496 20.4532 81.4965 20.4532 80.0434 20.3203C78.3374 19.7351 76.7632 18.9714 75.3207 18.0293C75.0056 17.6578 74.9247 17.2594 75.0785 16.834C77.3953 15.0687 79.9383 13.5746 82.7074 12.3516C83.8377 12.1523 84.9678 11.9531 86.0981 11.7539C87.2402 9.55399 88.8546 7.62823 90.9418 5.97656C92.7262 4.77533 94.7446 4.14447 96.9965 4.08398Z" fill="white"/>
<path opacity="0.97" fill-rule="evenodd" clip-rule="evenodd" d="M40.8083 5.07994C43.5823 4.87803 46.0848 5.44247 48.3161 6.7733C48.76 7.27134 49.2042 7.76939 49.6481 8.26744C54.7943 6.76943 58.9922 7.83192 62.2419 11.4549C63.2174 12.9433 63.7018 14.537 63.695 16.2362C63.8161 16.3358 63.9372 16.4354 64.0583 16.535C66.1835 16.304 68.2822 16.4368 70.3551 16.9335C72.8417 18.1165 75.2635 19.3782 77.6208 20.7186C80.922 21.9787 84.3935 22.709 88.0348 22.91C88.6354 23.9908 88.232 24.4888 86.8239 24.4042C71.7308 23.9505 56.6345 23.5852 41.5348 23.3085C41.1204 23.0827 40.9993 22.7839 41.1715 22.412C41.9097 22.094 42.5152 21.6623 42.9879 21.117C42.8046 20.8158 42.5624 20.5501 42.2614 20.3202C41.1853 19.9337 40.0551 19.7344 38.8708 19.7225C35.5608 19.5897 32.251 19.5897 28.9411 19.7225C24.8447 20.2642 24.7638 21.0278 28.6989 22.0135C29.0978 22.602 28.9365 23.0335 28.2145 23.3085C20.1808 23.3608 12.1482 23.4605 4.11685 23.6073C3.10773 23.5409 2.09863 23.4744 1.08951 23.4081C0.782663 23.0353 0.782663 22.6702 1.08951 22.3124C3.66295 21.5195 5.92338 20.3242 7.87076 18.7264C10.2782 17.6505 12.8211 17.3517 15.4997 17.8299C15.7915 17.7161 16.0741 17.5833 16.3473 17.4315C18.4273 11.4135 23.0692 9.35487 30.2731 11.2557C31.5572 8.47327 33.9386 6.64711 37.4176 5.7772C38.5789 5.53836 39.7092 5.30595 40.8083 5.07994Z" fill="white"/>
<path opacity="0.748" fill-rule="evenodd" clip-rule="evenodd" d="M33.0586 21.8145C34.2129 21.9455 34.5359 22.4436 34.0273 23.3086C33.2167 23.5489 32.6517 23.3496 32.332 22.7109C32.5069 22.3621 32.7491 22.0633 33.0586 21.8145Z" fill="white"/>
<path opacity="0.941" fill-rule="evenodd" clip-rule="evenodd" d="M41.777 39.1467C42.2812 39.1411 42.7254 39.274 43.109 39.5451C46.9385 44.0879 50.6115 48.703 54.1285 53.3908C53.8999 54.2538 53.2944 54.4863 52.3121 54.0881C49.1637 50.2366 46.0153 46.3849 42.8668 42.5334C42.6246 42.2678 42.3825 42.2678 42.1403 42.5334C41.2183 52.1212 40.4515 61.7167 39.8395 71.3205C39.8799 72.2833 39.9201 73.2463 39.9606 74.2092C42.0649 80.0863 42.5895 86.0629 41.5348 92.1388C41.2214 92.8303 40.7775 92.8967 40.2028 92.3381C40.6351 86.0449 39.8279 79.8692 37.7809 73.8107C37.7438 69.8881 37.5823 65.9703 37.2965 62.0568C37.1962 61.9658 37.0752 61.8992 36.9332 61.8576C35.3496 69.813 33.7753 77.7817 32.2106 85.7638C31.7712 86.0149 31.3273 86.0149 30.8785 85.7638C30.7294 85.2439 30.6487 84.7126 30.6364 84.1701C30.9212 81.7679 31.2036 79.3773 31.484 76.9982C26.5812 80.6134 23.352 85.0626 21.7965 90.3459C21.4511 91.3932 21.7337 92.2896 22.6442 93.0353C29.2184 94.5231 35.9189 95.3865 42.7457 95.6252C55.4211 95.7911 68.0955 95.758 80.7692 95.5256C72.413 86.6221 64.8647 77.2588 58.1246 67.4357C58.198 66.2731 58.763 66.1402 59.82 67.0373C67.0403 76.893 74.8307 86.4225 83.191 95.6252C89.0064 95.7537 94.8189 95.6873 100.629 95.426C91.3927 85.1128 82.0685 74.853 72.6559 64.6467C72.0436 66.4014 71.5593 68.1943 71.2028 70.0256C70.9213 71.2322 71.1635 72.361 71.9293 73.4123C75.0109 76.9434 77.9978 80.5294 80.8903 84.1701C81.0654 84.693 80.8232 85.0251 80.1637 85.1662C79.3679 84.7116 78.6413 84.1802 77.984 83.5724C72.589 78.1381 67.6646 72.4271 63.2106 66.4396C61.655 64.6112 60.0406 62.8182 58.3668 61.0607C57.7294 60.2288 57.9716 59.6977 59.0934 59.467C59.5078 59.4548 59.8306 59.5877 60.0621 59.8654C62.2287 62.5108 64.4891 65.1007 66.8434 67.6349C68.4874 65.8175 70.2229 64.0578 72.0504 62.3556C72.5675 62.2291 73.0519 62.2957 73.5035 62.5549C78.1347 67.7911 82.8978 72.9375 87.7926 77.9943C90.9476 74.4361 94.0558 70.8501 97.1168 67.2365C97.5041 66.9305 97.9482 66.8309 98.4489 66.9377C107.886 75.9001 116 85.6286 122.789 96.1232C122.95 96.5217 122.95 96.9201 122.789 97.3185C82.7609 97.4522 42.7193 97.5849 2.6637 97.717C1.12893 97.8502 0.563827 97.3189 0.968391 96.1232C5.19049 87.0522 10.4379 78.4194 16.7106 70.2248C18.7779 68.5902 20.9172 67.0297 23.1285 65.5431C24.3099 64.5054 25.3998 63.4097 26.3981 62.256C31.4697 54.5086 36.5961 46.8054 41.777 39.1467ZM97.7223 69.0295C98.0897 69.0317 98.3723 69.1643 98.5699 69.4279C103.958 74.8891 108.922 80.6001 113.464 86.5607C113.259 87.2484 112.815 87.7797 112.132 88.1545C110.187 87.5213 108.492 86.5916 107.047 85.3654C105.494 82.7445 103.879 80.1546 102.203 77.5959C101.866 77.2518 101.463 76.9861 100.992 76.799C100.535 76.8711 100.333 77.1036 100.386 77.4963C102.435 81.9297 104.938 86.1796 107.894 90.2463C109.456 90.9053 110.869 91.7352 112.132 92.7365C112.737 93.6959 113.343 94.6588 113.949 95.6252C110.478 95.758 107.006 95.758 103.535 95.6252C101.973 93.7428 100.318 91.9165 98.5699 90.1467C98.3224 89.708 98.2013 89.2432 98.2067 88.7521C98.5004 86.6308 98.6215 84.506 98.5699 82.3771C98.2009 81.3049 97.6356 80.3088 96.8746 79.3888C96.4716 78.6605 96.2699 77.8967 96.2692 77.0978C96.7409 74.4048 97.2253 71.7153 97.7223 69.0295Z" fill="white"/>
<path opacity="0.705" fill-rule="evenodd" clip-rule="evenodd" d="M55.582 55.8809C56.7353 55.9988 57.0584 56.4968 56.5508 57.375C55.3403 57.64 54.8157 57.2746 54.9765 56.2793C55.2175 56.1665 55.4193 56.0337 55.582 55.8809Z" fill="white"/>
</svg>
