<svg width="102" height="102" viewBox="0 0 102 102" fill="none" xmlns="http://www.w3.org/2000/svg">
<g clip-path="url(#clip0_557_184)">
<path opacity="0.985" fill-rule="evenodd" clip-rule="evenodd" d="M29.7837 -0.0996094C31.8422 -0.0996094 33.9009 -0.0996094 35.9594 -0.0996094C35.9594 1.75977 35.9594 3.61915 35.9594 5.47852C37.9516 5.47852 39.9438 5.47852 41.936 5.47852C41.936 3.61915 41.936 1.75977 41.936 -0.0996094C43.9945 -0.0996094 46.0533 -0.0996094 48.1118 -0.0996094C48.1118 1.75977 48.1118 3.61915 48.1118 5.47852C50.0376 5.47852 51.9633 5.47852 53.8891 5.47852C53.8891 3.61915 53.8891 1.75977 53.8891 -0.0996094C55.9477 -0.0996094 58.0064 -0.0996094 60.0649 -0.0996094C60.0649 1.75977 60.0649 3.61915 60.0649 5.47852C61.9908 5.47852 63.9164 5.47852 65.8423 5.47852C65.8423 3.61915 65.8423 1.75977 65.8423 -0.0996094C67.9008 -0.0996094 69.9595 -0.0996094 72.018 -0.0996094C72.0848 6.94232 71.9852 13.9814 71.7192 21.0176C69.7934 22.3458 67.8677 23.6738 65.9419 25.002C65.8423 36.3572 65.809 47.7127 65.8423 59.0684C55.815 59.0684 45.7875 59.0684 35.7602 59.0684C35.7935 47.6464 35.7602 36.2243 35.6606 24.8027C33.7509 23.5658 31.8583 22.3039 29.9829 21.0176C29.7837 13.9798 29.7173 6.9407 29.7837 -0.0996094ZM47.9126 17.6309C49.9048 17.6309 51.8969 17.6309 53.8891 17.6309C53.8891 20.4863 53.8891 23.3419 53.8891 26.1973C51.8969 26.1973 49.9048 26.1973 47.9126 26.1973C47.9126 23.3419 47.9126 20.4863 47.9126 17.6309ZM47.9126 35.1621C49.9048 35.1621 51.8969 35.1621 53.8891 35.1621C53.8891 38.0175 53.8891 40.8731 53.8891 43.7285C51.8969 43.7285 49.9048 43.7285 47.9126 43.7285C47.9126 40.8731 47.9126 38.0175 47.9126 35.1621Z" fill="white"/>
<path opacity="0.986" fill-rule="evenodd" clip-rule="evenodd" d="M-0.0996094 29.7832C1.89258 29.7832 3.88477 29.7832 5.87695 29.7832C5.87695 31.6425 5.87695 33.502 5.87695 35.3613C7.86914 35.3613 9.86133 35.3613 11.8535 35.3613C11.8535 33.502 11.8535 31.6425 11.8535 29.7832C13.9121 29.7832 15.9707 29.7832 18.0293 29.7832C18.0293 31.6425 18.0293 33.502 18.0293 35.3613C19.9551 35.3613 21.8808 35.3613 23.8066 35.3613C23.8066 33.502 23.8066 31.6425 23.8066 29.7832C25.8652 29.7832 27.9239 29.7832 29.9824 29.7832C30.0488 37.0892 29.9824 44.3937 29.7832 51.6973C27.9297 52.9201 26.1034 54.1819 24.3047 55.4824C24.2051 70.9549 24.1718 86.4277 24.2051 101.9C17.9629 101.9 11.7207 101.9 5.47852 101.9C5.54492 86.3607 5.47852 70.8217 5.2793 55.2832C3.5092 54.0343 1.71623 52.839 -0.0996094 51.6973C-0.0996094 44.3925 -0.0996094 37.088 -0.0996094 29.7832Z" fill="white"/>
<path opacity="0.992" fill-rule="evenodd" clip-rule="evenodd" d="M101.9 29.7832C101.9 37.088 101.9 44.3925 101.9 51.6973C99.9676 52.8808 98.075 54.1425 96.2224 55.4824C96.1228 70.9549 96.0896 86.4277 96.1228 101.9C89.947 101.9 83.7713 101.9 77.5955 101.9C77.6288 86.4277 77.5955 70.9549 77.4959 55.4824C75.6366 54.1542 73.7771 52.8262 71.9178 51.498C71.8181 44.26 71.7849 37.0218 71.8181 29.7832C73.8767 29.7832 75.9354 29.7832 77.9939 29.7832C77.9939 31.6425 77.9939 33.502 77.9939 35.3613C79.9198 35.3613 81.8454 35.3613 83.7713 35.3613C83.7713 33.502 83.7713 31.6425 83.7713 29.7832C85.8298 29.7832 87.8885 29.7832 89.947 29.7832C89.947 31.6425 89.947 33.502 89.947 35.3613C91.9392 35.3613 93.9314 35.3613 95.9236 35.3613C95.9236 33.502 95.9236 31.6425 95.9236 29.7832C97.9158 29.7832 99.908 29.7832 101.9 29.7832Z" fill="white"/>
<path opacity="0.982" fill-rule="evenodd" clip-rule="evenodd" d="M72.0176 101.9C68.7637 101.9 65.5097 101.9 62.2559 101.9C62.2891 96.4547 62.2559 91.0093 62.1562 85.5645C60.8322 79.5879 57.1136 76.3341 51 75.8027C44.9449 76.2807 41.2261 79.4682 39.8438 85.3652C39.7441 90.8766 39.7109 96.3882 39.7441 101.9C36.4238 101.9 33.1036 101.9 29.7832 101.9C29.7832 89.5488 29.7832 77.1973 29.7832 64.8457C43.8614 64.8457 57.9394 64.8457 72.0176 64.8457C72.0176 77.1973 72.0176 89.5488 72.0176 101.9Z" fill="white"/>
<path opacity="0.982" fill-rule="evenodd" clip-rule="evenodd" d="M56.4783 101.901C52.826 101.901 49.1735 101.901 45.5213 101.901C45.488 96.5212 45.5213 91.1423 45.6209 85.7638C46.8381 82.4155 49.1955 81.1206 52.6931 81.879C54.3028 82.4924 55.4651 83.5881 56.1795 85.1662C56.4715 90.7341 56.5711 96.3122 56.4783 101.901Z" fill="white"/>
</g>
<defs>
<clipPath id="clip0_557_184">
<rect width="102" height="102" fill="white"/>
</clipPath>
</defs>
</svg>
