<svg width="102" height="102" viewBox="0 0 102 102" fill="none" xmlns="http://www.w3.org/2000/svg">
<g clip-path="url(#clip0_557_798)">
<path opacity="0.979" fill-rule="evenodd" clip-rule="evenodd" d="M36.5563 -0.0996094C39.0798 -0.0996094 41.6032 -0.0996094 44.1267 -0.0996094C57.2544 1.56384 67.3813 7.93883 74.5075 19.0254C74.7522 21.5057 74.3537 23.8963 73.3122 26.1973C72.947 26.5624 72.5817 26.9278 72.2165 27.293C68.0895 29.1003 63.8393 30.5281 59.4665 31.5762C58.4353 31.6084 57.5389 31.2765 56.777 30.5801C53.06 18.523 46.3862 8.46247 36.7556 0.398438C36.6057 0.26481 36.5392 0.0987934 36.5563 -0.0996094Z" fill="white"/>
<path opacity="0.978" fill-rule="evenodd" clip-rule="evenodd" d="M30.9788 0.896484C31.7551 1.21947 32.4857 1.65111 33.1702 2.19141C42.6394 9.80037 49.28 19.3961 53.092 30.9785C52.8805 32.4814 52.1499 33.6437 50.9006 34.4648C48.6032 35.2219 46.279 35.8859 43.928 36.457C43.8369 36.5395 43.7704 36.6391 43.7288 36.7559C46.9756 49.2122 50.0968 61.6967 53.092 74.209C50.766 74.2211 48.4417 74.2875 46.1194 74.4082C43.1614 62.3104 40.1398 50.2246 37.0549 38.1504C34.3597 39.0082 31.6039 39.5063 28.7874 39.6445C27.3526 39.2722 26.4561 38.3757 26.0979 36.9551C24.0035 24.4218 25.6305 12.4022 30.9788 0.896484Z" fill="white"/>
<path opacity="0.979" fill-rule="evenodd" clip-rule="evenodd" d="M25.5997 2.68971C25.7983 2.68375 25.9312 2.78336 25.9981 2.98853C22.6425 11.4683 21.1483 20.2672 21.5157 29.385C21.7932 32.852 22.1253 36.3051 22.5118 39.7444C21.9749 40.8939 21.0784 41.5912 19.8223 41.8362C16.5091 42.4105 13.1888 42.9419 9.8614 43.4299C7.55578 43.9895 5.66321 43.3586 4.18367 41.5374C3.58601 40.8068 2.98836 40.0765 2.3907 39.346C1.73705 38.0929 1.53783 36.7647 1.79304 35.3616C3.96566 20.2154 11.9012 9.32465 25.5997 2.68971Z" fill="white"/>
<path opacity="0.981" fill-rule="evenodd" clip-rule="evenodd" d="M77.7953 40.3413C83.0559 39.9343 87.2062 41.86 90.2465 46.1187C93.5623 52.7308 92.4001 58.4085 86.7602 63.1519C81.8721 65.9987 77.0244 65.9322 72.2172 62.9527C67.1915 58.6874 65.8966 53.4744 68.3324 47.314C70.3997 43.5085 73.5542 41.1842 77.7953 40.3413Z" fill="white"/>
<path opacity="0.986" fill-rule="evenodd" clip-rule="evenodd" d="M71.4199 101.9C69.8262 101.9 68.2324 101.9 66.6387 101.9C63.7181 100.937 60.7962 99.9081 57.8731 98.8124C55.4978 98.0396 53.1071 97.9732 50.7012 98.6131C47.4973 99.7361 44.3098 100.832 41.1387 101.9C39.5449 101.9 37.9512 101.9 36.3574 101.9C33.6361 101.004 30.9134 100.041 28.1895 99.0116C25.3534 97.9517 22.498 97.8854 19.6231 98.8124C17.2324 99.6756 14.8418 100.539 12.4512 101.402C11.047 101.778 9.88488 101.413 8.96485 100.306C7.23828 97.6503 7.23828 94.9939 8.96485 92.3377C20.3671 84.0859 33.0839 79.0722 47.1152 77.2967C60.2818 76.1448 72.8326 78.4028 84.7676 84.0702C88.6535 85.9687 92.4387 88.0272 96.1231 90.2459C100.191 92.6041 101.154 95.8912 99.0117 100.107C98.0862 101.368 96.8576 101.799 95.3262 101.402C92.9507 100.5 90.5601 99.6363 88.1543 98.8124C85.779 98.0396 83.3884 97.9732 80.9824 98.6131C77.7776 99.7365 74.5901 100.832 71.4199 101.9Z" fill="white"/>
</g>
<defs>
<clipPath id="clip0_557_798">
<rect width="102" height="102" fill="white"/>
</clipPath>
</defs>
</svg>
