<svg width="102" height="102" viewBox="0 0 102 102" fill="none" xmlns="http://www.w3.org/2000/svg">
<g clip-path="url(#clip0_557_729)">
<path opacity="0.984" fill-rule="evenodd" clip-rule="evenodd" d="M-0.0996094 25.0017C-0.0996094 24.072 -0.0996094 23.1424 -0.0996094 22.2127C0.449282 20.896 1.21296 19.7008 2.19141 18.6267C8.00264 13.3121 14.4772 8.96252 21.6152 5.57791C24.0399 4.5397 26.5632 4.07484 29.1855 4.18338C32.0623 4.73266 34.785 5.69557 37.3535 7.07205C35.7578 8.135 34.5294 9.52953 33.668 11.2556C32.8755 14.0779 32.2115 16.9334 31.6758 19.822C31.2285 20.9172 30.6309 21.9132 29.8828 22.8103C27.8255 27.0678 28.4231 30.9195 31.6758 34.365C32.905 36.8606 33.1042 39.4505 32.2734 42.1345C30.6554 44.9254 29.9914 47.9137 30.2812 51.0994C29.7137 52.0809 28.8503 52.5457 27.6914 52.4939C24.4433 51.9819 21.5547 50.687 19.0254 48.6092C12.8321 42.7505 7.15432 36.4751 1.99219 29.783C1.19276 28.208 0.495499 26.6142 -0.0996094 25.0017Z" fill="white"/>
<path opacity="0.984" fill-rule="evenodd" clip-rule="evenodd" d="M101.9 22.2129C101.9 23.1426 101.9 24.0722 101.9 25.002C100.996 27.8721 99.5685 30.4619 97.6172 32.7715C92.9555 38.1645 88.0746 43.3775 82.9746 48.4102C80.3884 50.6326 77.4001 51.9941 74.0098 52.4941C71.5596 52.1463 70.7627 50.7848 71.6191 48.4102C71.243 46.2191 70.5458 44.1273 69.5273 42.1348C68.7785 40.0876 68.7119 38.0291 69.3281 35.959C70.3906 34.2324 71.4532 32.5059 72.5156 30.7793C73.4454 28.5216 73.4454 26.2636 72.5156 24.0059C71.7188 22.6777 70.9219 21.3497 70.125 20.0215C69.6768 17.2659 69.0791 14.5432 68.332 11.8535C67.476 9.93442 66.1811 8.37388 64.4473 7.17188C67.3461 5.48623 70.4671 4.45694 73.8105 4.08398C76.1558 4.30129 78.4135 4.86576 80.584 5.77734C85.8928 8.23072 90.8069 11.2854 95.3262 14.9414C97.2056 16.4218 98.9655 18.0488 100.605 19.8223C101.096 20.606 101.528 21.4029 101.9 22.2129Z" fill="white"/>
<path opacity="0.987" fill-rule="evenodd" clip-rule="evenodd" d="M47.3138 6.27562C52.4341 5.84485 57.4146 6.47572 62.2552 8.1682C64.5235 9.17499 66.0176 10.8684 66.7376 13.2483C67.3048 15.5532 67.7698 17.8774 68.1321 20.2209C68.9422 21.7742 69.8054 23.3017 70.722 24.803C71.386 26.5296 71.386 28.256 70.722 29.9827C69.8918 31.5111 68.9621 32.9719 67.9329 34.3655C67.0958 36.2754 66.8302 38.2676 67.136 40.342C67.8877 42.7514 68.419 45.2083 68.7298 47.7131C68.8868 49.1188 68.8204 50.5133 68.5306 51.8967C68.4162 52.2936 68.1837 52.5924 67.8333 52.7932C66.5051 52.9924 65.1771 53.1916 63.8489 53.3909C63.4332 53.5486 63.0678 53.7811 62.7532 54.0881C61.425 57.4748 60.2963 60.9281 59.3665 64.4475C58.7232 68.2773 58.2585 72.1288 57.972 76.0022C57.308 78.6584 56.6438 81.3148 55.9798 83.9709C55.8067 85.0933 55.7071 86.2221 55.681 87.3577C55.7971 89.2311 55.9631 91.0904 56.179 92.9358C55.0753 93.5743 54.3448 94.504 53.9876 95.7248C51.9291 98.381 49.8704 98.381 47.8118 95.7248C47.4546 94.504 46.7241 93.5743 45.6204 92.9358C45.8507 91.0916 46.0167 89.2321 46.1185 87.3577C46.1047 86.2209 46.0051 85.0919 45.8196 83.9709C45.1556 81.3148 44.4914 78.6584 43.8275 76.0022C43.5386 72.1294 43.0736 68.2777 42.4329 64.4475C41.5032 60.9281 40.3744 57.4748 39.0462 54.0881C38.7316 53.7811 38.3663 53.5486 37.9505 53.3909C36.6223 53.1916 35.2943 52.9924 33.9661 52.7932C33.6157 52.5924 33.3832 52.2936 33.2689 51.8967C32.8792 49.5641 32.9455 47.24 33.4681 44.9241C33.9074 43.407 34.3058 41.8796 34.6634 40.342C35.17 36.9483 34.2402 34.0266 31.8743 31.5764C30.5125 29.4436 30.2469 27.1856 31.0774 24.803C31.9941 23.3017 32.8573 21.7742 33.6673 20.2209C34.0333 18.0905 34.4317 15.9655 34.8626 13.8459C36.0587 9.97253 38.6818 7.74791 42.7317 7.17211C44.2841 6.85487 45.8115 6.55604 47.3138 6.27562ZM40.5403 28.9866C43.0332 28.9308 43.8633 30.0598 43.0306 32.3733C41.5195 33.772 40.2578 33.5728 39.2454 31.7756C38.9803 30.5132 39.412 29.5836 40.5403 28.9866ZM59.6653 28.9866C62.2793 28.9742 63.1092 30.1695 62.1556 32.5725C60.2899 33.7833 58.995 33.3186 58.2708 31.178C58.3901 30.2048 58.8549 29.4742 59.6653 28.9866Z" fill="white"/>
<path opacity="0.922" fill-rule="evenodd" clip-rule="evenodd" d="M34.1661 54.8848C35.2403 54.9451 36.3027 55.0778 37.3536 55.2832C37.8734 56.5225 38.3384 57.7842 38.7481 59.0684C36.3223 68.8843 31.2754 77.019 23.6075 83.4727C22.5791 83.7563 22.1474 83.391 22.3126 82.377C27.8778 76.6938 31.4637 69.9204 33.0704 62.0566C33.6123 59.6915 33.9775 57.3009 34.1661 54.8848Z" fill="white"/>
<path opacity="0.921" fill-rule="evenodd" clip-rule="evenodd" d="M66.6387 54.8848C66.9708 54.8848 67.3027 54.8848 67.6348 54.8848C68.287 63.3834 70.9765 71.153 75.7031 78.1934C76.8176 79.707 78.0792 81.1016 79.4883 82.377C79.6534 83.391 79.2217 83.7563 78.1934 83.4727C72.4604 78.9333 68.2438 73.2555 65.543 66.4395C64.5742 64.0309 63.744 61.5739 63.0527 59.0684C63.4645 57.8665 63.896 56.6712 64.3477 55.4824C65.1047 55.1904 65.8683 54.9911 66.6387 54.8848Z" fill="white"/>
</g>
<defs>
<clipPath id="clip0_557_729">
<rect width="102" height="102" fill="white"/>
</clipPath>
</defs>
</svg>
