<svg width="102" height="102" viewBox="0 0 102 102" fill="none" xmlns="http://www.w3.org/2000/svg">
<g clip-path="url(#clip0_557_249)">
<path opacity="0.986" fill-rule="evenodd" clip-rule="evenodd" d="M101.9 62.2559C101.9 62.7872 101.9 63.3183 101.9 63.8496C101.344 64.5809 100.613 64.8134 99.709 64.5469C97.5646 63.126 95.4728 61.6319 93.4336 60.0645C93.3673 73.4121 93.3007 86.7598 93.2344 100.107C92.9102 100.685 92.4122 100.984 91.7402 101.004C82.1779 101.104 72.6154 101.137 63.0527 101.104C63.086 93.068 63.0527 85.0329 62.9531 76.998C61.5152 70.8169 57.6304 67.4965 51.2988 67.0371C45.8627 67.3284 42.1109 69.9846 40.043 75.0059C39.7674 75.9183 39.5682 76.848 39.4453 77.7949C39.3457 85.5643 39.3124 93.3338 39.3457 101.104C29.4509 101.137 19.5564 101.104 9.66211 101.004C9.17616 100.85 8.81091 100.551 8.56641 100.107C8.50001 86.7598 8.43359 73.4121 8.36719 60.0645C6.34179 61.5586 4.31641 63.0527 2.29102 64.5469C1.30607 64.8272 0.509199 64.5949 -0.0996094 63.8496C-0.0996094 63.3183 -0.0996094 62.7872 -0.0996094 62.2559C8.83956 55.6105 17.8376 49.0363 26.8945 42.5332C27.0274 35.959 27.0274 29.3848 26.8945 22.8105C25.255 24.178 23.5616 25.4729 21.8145 26.6953C19.948 26.8222 19.2507 25.9923 19.7227 24.2051C29.6989 16.511 39.6929 8.84111 49.7051 1.19531C50.502 0.796875 51.2988 0.796875 52.0957 1.19531C62.2226 8.93163 72.3497 16.668 82.4766 24.4043C83.0501 26.4214 82.2865 27.2515 80.1855 26.8945C78.4258 25.5333 76.6659 24.1718 74.9062 22.8105C74.7734 29.3184 74.7734 35.8261 74.9062 42.334C83.9454 48.9536 92.9435 55.5944 101.9 62.2559ZM49.9043 13.8457C54.3714 13.7651 57.1272 15.8901 58.1719 20.2207C58.1659 25.8528 55.3436 28.6088 49.7051 28.4883C45.0075 27.1651 43.0484 24.0772 43.8281 19.2246C44.9029 16.3219 46.9282 14.5289 49.9043 13.8457ZM23.4082 68.4316C28.2193 68.4312 31.1745 70.7553 32.2734 75.4043C32.4063 78.3262 32.4063 81.248 32.2734 84.1699C32.1075 84.6016 31.8087 84.9005 31.377 85.0664C26.7286 85.1993 22.08 85.1993 17.4316 85.0664C17.1466 84.9738 16.9142 84.8076 16.7344 84.5684C16.4122 81.5936 16.3458 78.6053 16.5352 75.6035C17.1772 71.6084 19.4682 69.2178 23.4082 68.4316ZM76.2012 68.4316C80.7722 68.3406 83.7275 70.4657 85.0664 74.8066C85.2349 77.8609 85.3015 80.9155 85.2656 83.9707C85.1248 84.2857 84.9588 84.5845 84.7676 84.8672C79.9373 85.1953 75.0897 85.2616 70.2246 85.0664C69.9921 84.8339 69.7598 84.6016 69.5273 84.3691C69.3945 81.1816 69.3945 77.9941 69.5273 74.8066C70.4973 71.346 72.722 69.2209 76.2012 68.4316ZM45.123 84.1699C46.7451 84.1661 47.3758 84.963 47.0156 86.5605C46.0859 87.8887 45.1563 87.8887 44.2266 86.5605C43.9226 85.5125 44.2214 84.7156 45.123 84.1699Z" fill="white"/>
<path opacity="0.949" fill-rule="evenodd" clip-rule="evenodd" d="M49.7051 16.8338C53.7501 16.6618 55.5761 18.5876 55.1836 22.6112C53.9222 25.4012 51.8304 26.2977 48.9082 25.3006C46.3881 23.6091 45.8237 21.3844 47.2149 18.6268C47.8721 17.7538 48.7022 17.1561 49.7051 16.8338Z" fill="white"/>
<path opacity="0.977" fill-rule="evenodd" clip-rule="evenodd" d="M50.9001 69.2285C55.4935 69.4084 58.5151 71.6662 59.9646 76.002C60.2566 84.3624 60.3563 92.7296 60.2634 101.104C54.2869 101.104 48.3103 101.104 42.3337 101.104C42.2385 92.6604 42.3381 84.2269 42.6326 75.8027C44.0239 71.8725 46.7797 69.6811 50.9001 69.2285ZM45.1228 84.1699C44.2211 84.7156 43.9223 85.5125 44.2263 86.5605C45.1561 87.8887 46.0856 87.8887 47.0154 86.5605C47.3756 84.963 46.7448 84.1661 45.1228 84.1699Z" fill="white"/>
<path opacity="0.963" fill-rule="evenodd" clip-rule="evenodd" d="M23.4076 71.4195C26.6959 71.1577 28.7213 72.6188 29.4837 75.8023C29.5833 77.9262 29.6166 80.0512 29.5833 82.1773C26.1966 82.1773 22.8099 82.1773 19.4232 82.1773C19.3395 79.6416 19.4391 77.1183 19.722 74.607C20.4392 72.9252 21.6678 71.8625 23.4076 71.4195Z" fill="white"/>
<path opacity="0.965" fill-rule="evenodd" clip-rule="evenodd" d="M76.4009 71.4203C79.4209 71.2242 81.38 72.5524 82.2779 75.4047C82.3775 77.6614 82.4108 79.9193 82.3775 82.1781C78.9908 82.1781 75.6041 82.1781 72.2174 82.1781C72.1389 79.7106 72.2385 77.2534 72.5162 74.807C73.2999 73.0585 74.5948 71.9297 76.4009 71.4203Z" fill="white"/>
</g>
<defs>
<clipPath id="clip0_557_249">
<rect width="102" height="102" fill="white"/>
</clipPath>
</defs>
</svg>
