<svg width="102" height="102" viewBox="0 0 102 102" fill="none" xmlns="http://www.w3.org/2000/svg">
<g clip-path="url(#clip0_557_172)">
<path opacity="0.993" fill-rule="evenodd" clip-rule="evenodd" d="M33.7676 -0.0996094C35.2284 -0.0996094 36.6895 -0.0996094 38.1504 -0.0996094C43.004 1.06778 46.1582 4.05605 47.6133 8.86523C47.9055 15.8962 48.0051 22.9353 47.9121 29.9824C49.2528 30.037 50.581 29.9374 51.8965 29.6836C52.9914 29.1232 53.6221 28.2267 53.7891 26.9941C53.7966 22.0702 53.9295 17.1562 54.1875 12.252C56.366 7.16144 60.1844 5.20246 65.6426 6.375C68.851 7.52477 70.8764 9.74939 71.7187 13.0488C71.8516 18.6934 71.8516 24.338 71.7187 29.9824C69.7351 40.0011 63.7253 45.9446 53.6894 47.8125C51.7648 47.9121 49.839 47.9452 47.9121 47.9121C47.9121 56.9433 47.9121 65.9747 47.9121 75.0059C39.7826 75.1587 31.8138 76.354 24.0059 78.5918C24.0059 76.3341 24.0059 74.0761 24.0059 71.8184C13.5386 72.6469 6.00146 68.397 1.39453 59.0684C0.767122 57.3517 0.269075 55.6253 -0.0996094 53.8887C-0.0996094 46.252 -0.0996094 38.6152 -0.0996094 30.9785C2.14483 24.9091 6.39484 22.8173 12.6504 24.7031C15.3598 25.9714 17.0532 28.0631 17.7305 30.9785C17.7371 37.9589 17.8699 44.9316 18.1289 51.8965C18.4277 52.7266 18.9922 53.291 19.8223 53.5898C21.2042 53.8464 22.5988 53.946 24.0059 53.8887C23.9726 39.2128 24.0059 24.537 24.1055 9.86133C25.2832 4.53356 28.5038 1.21325 33.7676 -0.0996094Z" fill="white"/>
<path opacity="0.982" fill-rule="evenodd" clip-rule="evenodd" d="M87.7551 -0.0996094C89.2159 -0.0996094 90.677 -0.0996094 92.1379 -0.0996094C97.405 1.24964 100.659 4.56996 101.9 9.86133C101.9 11.3223 101.9 12.7832 101.9 14.2441C100.309 20.4155 96.3248 23.6694 89.9465 24.0059C83.5715 23.7078 79.6202 20.454 78.0929 14.2441C77.3714 8.69562 79.3303 4.41242 83.9699 1.39453C85.2094 0.772285 86.4713 0.274239 87.7551 -0.0996094Z" fill="white"/>
<path opacity="0.987" fill-rule="evenodd" clip-rule="evenodd" d="M101.9 49.7053C101.9 52.7599 101.9 55.8147 101.9 58.8693C99.7859 64.4128 95.7352 66.7371 89.7481 65.842C89.7813 72.0182 89.7481 78.194 89.6485 84.3693C84.1855 80.8318 78.242 78.4412 71.8184 77.1975C71.8184 75.4045 71.8184 73.6115 71.8184 71.8186C67.8713 72.5278 64.5178 71.4653 61.7578 68.6311C59.9882 66.1243 59.3573 63.3352 59.8653 60.2639C59.8378 58.5843 59.9374 56.924 60.1641 55.2834C61.1255 53.9598 62.4204 53.5281 64.0489 53.9885C64.879 54.2873 65.4434 54.8517 65.7422 55.6818C65.8086 58.0725 65.8751 60.4631 65.9414 62.8537C66.1084 64.0863 66.7391 64.9828 67.834 65.5432C69.1494 65.797 70.4776 65.8966 71.8184 65.842C71.7251 59.9218 71.8248 54.0118 72.1172 48.1115C74.2957 43.0211 78.1141 41.062 83.5723 42.2346C86.7807 43.3843 88.8062 45.6089 89.6485 48.9084C89.7481 52.5601 89.7813 56.2126 89.7481 59.8654C91.0888 59.92 92.417 59.8204 93.7324 59.5666C94.9596 59.0711 95.6569 58.1747 95.8242 56.8771C95.8906 54.4865 95.9571 52.0959 96.0235 49.7053C96.8897 48.0288 98.2509 47.4645 100.107 48.0119C100.941 48.3482 101.539 48.9126 101.9 49.7053Z" fill="white"/>
<path opacity="0.992" fill-rule="evenodd" clip-rule="evenodd" d="M101.9 97.7164C101.9 98.5133 101.9 99.3101 101.9 100.107C101.641 100.403 101.408 100.735 101.203 101.103C100.802 101.342 100.436 101.607 100.107 101.9C67.3027 101.9 34.4981 101.9 1.69336 101.9C1.39714 101.64 1.0651 101.408 0.697266 101.203C0.458884 100.801 0.193259 100.436 -0.0996094 100.107C-0.0996094 99.3101 -0.0996094 98.5133 -0.0996094 97.7164C0.261935 96.9237 0.859591 96.3593 1.69336 96.023C4.28235 95.9234 6.87219 95.8901 9.46289 95.9234C9.76467 94.7223 10.3291 93.6597 11.1562 92.7359C14.8533 88.9141 19.2693 86.2246 24.4043 84.6676C35.049 81.3583 45.9396 80.0967 57.0762 80.8824C66.2767 81.2569 75.0423 83.3818 83.373 87.2574C86.3446 88.8338 88.9014 90.9256 91.043 93.5328C91.5721 94.2587 91.9373 95.0556 92.1387 95.9234C94.7957 95.8901 97.452 95.9234 100.107 96.023C100.941 96.3593 101.539 96.9237 101.9 97.7164Z" fill="white"/>
</g>
<defs>
<clipPath id="clip0_557_172">
<rect width="102" height="102" fill="white"/>
</clipPath>
</defs>
</svg>
