<svg width="30" height="31" viewBox="0 0 30 31" fill="none" xmlns="http://www.w3.org/2000/svg">
<path d="M26.6047 11.0493L19.1662 9.96827L15.841 3.22706C15.7502 3.04249 15.6008 2.89308 15.4162 2.80226C14.9533 2.57374 14.3908 2.76417 14.1594 3.22706L10.8342 9.96827L3.39573 11.0493C3.19065 11.0786 3.00315 11.1753 2.8596 11.3218C2.68605 11.5002 2.59041 11.7401 2.59371 11.989C2.59701 12.2379 2.69896 12.4752 2.87718 12.6489L8.25901 17.896L6.98753 25.3052C6.95771 25.4775 6.97678 25.6548 7.04258 25.8169C7.10838 25.9789 7.21827 26.1193 7.3598 26.2221C7.50132 26.3249 7.66882 26.386 7.84329 26.3984C8.01776 26.4109 8.19223 26.3742 8.3469 26.2925L15.0002 22.7944L21.6535 26.2925C21.8352 26.3892 22.0461 26.4214 22.2483 26.3862C22.758 26.2983 23.1008 25.815 23.0129 25.3052L21.7414 17.896L27.1233 12.6489C27.2698 12.5054 27.3664 12.3179 27.3957 12.1128C27.4748 11.6001 27.1174 11.1255 26.6047 11.0493Z" fill="#FF8A00"/>
</svg>
