<svg width="60" height="60" viewBox="0 0 60 60" fill="none" xmlns="http://www.w3.org/2000/svg">
<g clip-path="url(#clip0_328_737)">
<path opacity="0.996" fill-rule="evenodd" clip-rule="evenodd" d="M27.2461 -0.0585938C29.0429 -0.0585938 30.8399 -0.0585938 32.6367 -0.0585938C43.1419 1.21733 51.052 6.41265 56.3672 15.5273C58.3236 19.2154 59.515 23.1216 59.9414 27.2461C59.9414 29.0429 59.9414 30.8399 59.9414 32.6367C58.6655 43.1419 53.4702 51.052 44.3555 56.3672C40.6675 58.3236 36.7612 59.515 32.6367 59.9414C30.8399 59.9414 29.0429 59.9414 27.2461 59.9414C16.7409 58.6655 8.8308 53.4702 3.51562 44.3555C1.55921 40.6675 0.367805 36.7612 -0.0585938 32.6367C-0.0585938 30.8399 -0.0585938 29.0429 -0.0585938 27.2461C1.21729 16.7411 6.41259 8.83093 15.5273 3.51562C19.2154 1.55921 23.1216 0.367805 27.2461 -0.0585938Z" fill="#29A71A"/>
<path fill-rule="evenodd" clip-rule="evenodd" d="M28.5356 11.1912C36.2616 11.0004 42.1404 14.1644 46.1724 20.6834C49.688 27.5957 49.2974 34.2754 45.0005 40.7225C40.6674 46.3152 34.9447 48.8347 27.8325 48.2811C25.6658 48.0078 23.5955 47.4024 21.6216 46.4647C18.5656 47.1506 15.5187 47.8732 12.481 48.6327C11.5048 48.7077 11.1728 48.2585 11.4849 47.285C12.1054 44.2995 12.7109 41.3112 13.3013 38.3202C10.1154 31.2117 10.799 24.5124 15.352 18.2225C18.7994 14.1062 23.1939 11.7624 28.5356 11.1912Z" fill="#FDFEFD"/>
<path fill-rule="evenodd" clip-rule="evenodd" d="M28.8864 15.176C35.7053 15.1457 40.5685 18.1925 43.4762 24.3166C45.6281 30.6503 44.3195 36.1385 39.5504 40.7815C34.0371 45.0442 28.2167 45.4934 22.0895 42.1291C20.2292 42.5893 18.3737 43.0581 16.5231 43.5354C16.7558 41.6482 17.0879 39.7732 17.5192 37.9104C16.9193 36.4435 16.3529 34.9591 15.8199 33.4573C14.4512 26.2166 16.8927 20.6892 23.1442 16.8752C24.971 15.9602 26.885 15.3937 28.8864 15.176Z" fill="#2AA71B"/>
<path fill-rule="evenodd" clip-rule="evenodd" d="M23.496 20.8007C24.0087 20.7828 24.4578 20.939 24.8436 21.2695C25.4617 22.5446 26.0476 23.8336 26.6014 25.1366C26.6836 25.5384 26.6446 25.9291 26.4842 26.3085C25.9588 26.8532 25.5876 27.4782 25.371 28.1835C25.367 28.5272 25.4646 28.8398 25.6639 29.121C26.6558 30.3864 27.7691 31.5387 29.0038 32.578C29.839 33.2562 30.7373 33.8421 31.6991 34.3359C32.2009 34.4489 32.6696 34.3708 33.1053 34.1015C33.4959 33.7109 33.8866 33.3202 34.2772 32.9296C34.4763 32.8173 34.6912 32.7587 34.9217 32.7538C36.4049 33.1002 37.8697 33.5104 39.3163 33.9843C39.8531 34.3872 40.0289 34.9145 39.8436 35.5663C38.803 37.7758 37.0646 38.8695 34.6288 38.8476C32.0607 38.5841 29.756 37.6662 27.7147 36.0937C25.4147 34.3799 23.4811 32.3291 21.9139 29.9413C20.8454 28.1829 20.4353 26.2885 20.6835 24.2577C21.0448 23.1447 21.6697 22.2072 22.5585 21.4452C22.8596 21.2007 23.1722 20.9859 23.496 20.8007Z" fill="#FDFEFD"/>
</g>
<defs>
<clipPath id="clip0_328_737">
<rect width="60" height="60" fill="white"/>
</clipPath>
</defs>
</svg>
